<svg width="155" height="155" viewBox="0 0 155 155" fill="none" xmlns="http://www.w3.org/2000/svg">
<path d="M73.4897 66.1751C68.7057 68.618 61.9149 77.6917 61.9149 77.6917L53.641 67.9185C49.9721 69.0814 46.8574 71.5499 44.8872 74.8562L56.0112 87.4634C57.22 88.8306 58.8766 89.7221 60.6835 89.9779C62.4904 90.2338 64.3293 89.8372 65.8701 88.8593L79.8756 79.9456L72.6341 86.8381L70.2202 119.352C73.931 120.758 78.0376 120.701 81.7078 119.192L84.8923 69.4905C82.4034 70.9737 76.0635 68.8369 73.4897 66.1751Z" fill="#FECFC4"/>
<path d="M82.1999 60.1694C81.6022 60.1694 81.0289 60.4069 80.6062 60.8296C80.1835 61.2523 79.946 61.8255 79.946 62.4233C79.946 63.0211 80.1835 63.5944 80.6062 64.017C81.0289 64.4397 81.6022 64.6772 82.1999 64.6772C82.7977 64.6772 83.371 64.4397 83.7937 64.017C84.2163 63.5944 84.4538 63.0211 84.4538 62.4233C84.4538 61.8255 84.2163 61.2523 83.7937 60.8296C83.371 60.4069 82.7977 60.1694 82.1999 60.1694Z" fill="#FECFC4"/>
<path d="M100.376 111.151C100.376 113.009 101.025 114.808 102.212 116.237C103.4 117.666 105.05 118.634 106.876 118.974V136.38H109.799V118.974C111.625 118.633 113.274 117.664 114.461 116.236C115.648 114.807 116.298 113.008 116.299 111.151H100.376ZM108.33 116.706C108.134 116.705 107.939 116.667 107.757 116.591C107.576 116.516 107.411 116.406 107.272 116.267C107.132 116.127 107.022 115.962 106.947 115.781C106.872 115.599 106.833 115.404 106.833 115.207C106.833 115.011 106.872 114.816 106.947 114.634C107.023 114.453 107.133 114.288 107.272 114.148C107.411 114.009 107.576 113.899 107.758 113.824C107.94 113.749 108.135 113.71 108.331 113.71C108.728 113.71 109.109 113.868 109.39 114.149C109.671 114.43 109.829 114.811 109.829 115.208C109.829 115.605 109.671 115.986 109.39 116.267C109.109 116.548 108.728 116.706 108.33 116.706Z" fill="#FECFC4"/>
<path d="M48.2172 136.338C48.2912 135.422 48.5909 134.537 49.0897 133.765C51.0658 130.813 52.5796 128.331 52.5796 121.187H42.4153C42.4153 127.845 43.688 130.217 45.8325 133.634C46.3763 134.439 46.7065 135.37 46.7922 136.338C46.734 138.68 46.486 139.508 44.1602 140.323H50.8492C48.5371 139.506 48.2463 138.677 48.2172 136.338ZM45.687 128.792L46.3269 126.669L44.5528 125.331L46.7776 125.287L47.5047 123.193L48.2318 125.287L50.4566 125.331L48.6825 126.669L49.3223 128.792L47.5047 127.526L45.687 128.792Z" fill="#FECFC4"/>
<path d="M79.8587 79.9456L72.6172 86.8381L72.7917 84.4388L79.8587 79.9456Z" fill="#6153BD"/>
<path d="M80.6891 131.494C79.806 127.659 79.5793 123.702 80.0186 119.791C77.5183 120.482 74.8856 120.541 72.357 119.963C72.5295 121.785 72.3165 123.623 71.7317 125.358C72.7496 126.53 74.816 127.073 75.2361 131.508C75.2977 132.127 75.5856 132.7 76.0447 133.119C76.5037 133.538 77.1013 133.772 77.7227 133.777H85.5022C84.9067 133.078 84.1699 132.513 83.3403 132.12C82.5107 131.726 81.6071 131.513 80.6891 131.494Z" fill="#6153BD"/>
<path d="M47.4739 62.627C41.7883 61.6819 32.9909 61.2602 29.6755 62.627C32.8259 64.856 36.2223 66.715 39.7977 68.1672C41.1531 68.5346 42.3937 69.2387 43.4039 70.2145L46.065 73.21C47.6949 71.0733 49.8626 69.4074 52.3468 68.3823L47.4739 62.627Z" fill="#6153BD"/>
<path d="M80.3967 47.7513L81.5019 49.0164C81.5394 48.7263 81.6159 48.4431 81.7315 48.1745C81.274 48.0765 80.8271 47.9348 80.3967 47.7513Z" fill="#6153BD"/>
<path d="M75.944 38.925C71.9919 43.1128 78.23 46.7627 78.6992 47.0252C78.6832 45.8402 78.5713 44.6585 78.3647 43.4917C76.7652 42.9559 77.5068 41.0633 78.5828 41.8079C78.9226 42.0789 79.277 42.2396 79.339 41.8079C79.7898 39.0742 81.8691 38.3471 83.1778 40.8773C81.4 37.2818 79.0252 35.9907 75.944 38.925Z" fill="#6153BD"/>
<path d="M76.2815 33.879C75.8195 33.4966 75.2558 33.2576 74.6597 33.1915C74.0637 33.1254 73.4613 33.235 72.9267 33.5068C72.3921 33.7787 71.9487 34.201 71.6511 34.7216C71.3534 35.2422 71.2145 35.8386 71.2514 36.4371C71.2884 37.0357 71.4995 37.6105 71.8589 38.0906C72.2183 38.5707 72.7102 38.9352 73.2742 39.1393C73.8381 39.3434 74.4494 39.3782 75.0328 39.2393C75.6162 39.1004 76.1463 38.794 76.5578 38.3577C77.0941 37.7178 77.3644 36.8965 77.313 36.0632C77.2616 35.2299 76.8924 34.4481 76.2815 33.879Z" fill="#6153BD"/>
<path d="M63.7325 55.1091C63.6016 56.4178 63.8634 57.4816 64.5032 57.6975C65.2593 57.9447 66.1172 57.2758 66.9025 56.2143C65.8342 55.8801 64.777 55.5115 63.7325 55.1091Z" fill="#6153BD"/>
<path d="M73.3586 60.5766L72.4716 61.8126C72.2822 61.2499 72.078 60.6923 71.8594 60.1403C72.3844 60.2857 72.8933 60.4311 73.3586 60.5766Z" fill="#6153BD"/>
<path d="M83.1741 7.42872V25.0963C94.8506 29.3423 106.527 20.8502 118.204 25.0963V7.42872C106.527 3.1827 94.8476 11.6747 83.1741 7.42872Z" fill="#6153BD"/>
<path d="M118.204 39.8991V51.532" stroke="#120071" stroke-width="0.769171" stroke-linecap="round" stroke-linejoin="round"/>
<path d="M118.204 4.54919V31.5667" stroke="#120071" stroke-width="0.769171" stroke-linecap="round" stroke-linejoin="round"/>
<path d="M84.1339 50.0051L82.1999 60.1694L75.2493 50.2523" stroke="#120071" stroke-width="0.769171" stroke-linecap="round" stroke-linejoin="round"/>
<path d="M73.4897 66.1748C68.7057 68.6177 61.9149 77.6914 61.9149 77.6914L53.641 67.9182C49.9721 69.0811 46.8574 71.5496 44.8872 74.8559L55.9844 87.4631C57.1935 88.8293 58.8497 89.7202 60.6561 89.976C62.4625 90.2318 64.3009 89.8358 65.8418 88.859L72.7925 84.4385L70.2042 119.352C73.923 120.746 78.0313 120.684 81.7062 119.177L84.8907 69.4902" stroke="#120071" stroke-width="0.769171" stroke-linecap="round" stroke-linejoin="round"/>
<path d="M79.8587 79.9454L72.6172 86.838L72.7917 84.4387L79.8587 79.9454Z" stroke="#120071" stroke-width="0.769171" stroke-linecap="round" stroke-linejoin="round"/>
<path d="M86.446 135.31C86.2208 134.75 85.9011 134.232 85.5008 133.78H77.7358C77.1152 133.773 76.519 133.537 76.0605 133.119C75.602 132.701 75.3133 132.129 75.2493 131.511C75.1508 129.907 74.5902 128.365 73.6352 127.072C73.2854 126.652 72.2392 125.909 71.7448 125.357C71.0323 127.843 71.6102 127.686 72.3847 128.614C73.3435 129.898 73.9047 131.435 73.9987 133.034C74.0546 133.653 74.3387 134.228 74.7956 134.649C75.2526 135.07 75.8497 135.305 76.4707 135.31L86.446 135.31Z" stroke="#120071" stroke-width="0.769171" stroke-linecap="round" stroke-linejoin="round"/>
<path d="M80.0172 119.791C79.5801 123.697 79.8068 127.649 80.6876 131.479C81.6031 131.497 82.5044 131.709 83.3317 132.101C84.159 132.494 84.8934 133.057 85.4862 133.755H77.7212C77.1003 133.753 76.5022 133.521 76.0428 133.103C75.5835 132.685 75.2955 132.112 75.2346 131.494C75.1451 129.888 74.5836 128.344 73.6206 127.055C73.2616 126.629 72.2101 125.892 71.7302 125.339C71.8029 125.092 71.8756 124.83 71.9774 124.525C72.3586 123.041 72.4879 121.503 72.3601 119.976" stroke="#120071" stroke-width="0.769171" stroke-linecap="round" stroke-linejoin="round"/>
<path d="M52.3468 68.3852L47.4739 62.6269C41.7883 61.6817 32.9909 61.26 29.6755 62.6269C32.8271 64.8539 36.2233 66.7127 39.7977 68.1671C41.1539 68.5337 42.3945 69.2386 43.4039 70.2144L46.065 73.2098" stroke="#120071" stroke-width="0.769171" stroke-linecap="round" stroke-linejoin="round"/>
<path d="M29.6772 62.6269C29.0426 62.1807 28.4219 61.7152 27.8159 61.2309C31.0303 59.6896 40.3795 59.9949 46.1523 61.0564L47.4741 62.6269" stroke="#120071" stroke-width="0.769171" stroke-linecap="round" stroke-linejoin="round"/>
<path d="M81.502 49.0147L80.3831 47.7512C80.8208 47.931 81.2731 48.0726 81.7354 48.1729" stroke="#120071" stroke-width="0.769171" stroke-linecap="round" stroke-linejoin="round"/>
<path d="M39.5359 41.4379C39.5069 41.4815 38.2349 40.5401 36.7004 39.3715C34.9815 38.0704 35.1437 37.2347 37.3838 38.4263C38.4889 39.0839 39.699 39.5463 40.961 39.7932" stroke="#120071" stroke-width="0.769171" stroke-linecap="round" stroke-linejoin="round"/>
<path d="M41.8482 38.6195C41.8482 38.6195 38.0215 35.9003 37.7766 35.7113C35.9881 34.3444 35.4539 34.9521 36.8169 36.4819C38.0705 37.8894 39.7688 39.5065 39.7688 39.5065" stroke="#120071" stroke-width="0.769171" stroke-linecap="round" stroke-linejoin="round"/>
<path d="M68.124 48.449C58.7014 45.1191 48.5799 40.3365 48.508 40.3059C47.7297 39.9745 46.9376 38.9827 47.083 38.2396C47.3309 36.9745 47.8835 35.1683 47.2429 35.0405C46.2694 34.8469 45.687 37.5707 44.7709 38.1959C44.451 38.414 43.5357 37.7444 43.215 37.4398C42.6793 36.9293 40.8601 35.2142 40.6849 35.0405C39.0777 33.4479 38.5419 34.1565 39.7106 35.6803C40.3187 36.4439 40.8271 37.2818 41.2236 38.1737" stroke="#120071" stroke-width="0.769171" stroke-linecap="round" stroke-linejoin="round"/>
<path d="M42.5314 37.8925C41.3184 39.0011 40.5314 40.4991 40.3066 42.127" stroke="#120071" stroke-width="0.769171" stroke-linecap="round" stroke-linejoin="round"/>
<path d="M43.2439 39.142C42.7495 40.9597 43.0694 42.4574 44.6108 43.3881" stroke="#120071" stroke-width="0.769171" stroke-linecap="round" stroke-linejoin="round"/>
<path d="M88.3799 56.8832C88.4932 57.7266 88.5222 58.5792 88.4671 59.4279" stroke="#120071" stroke-width="0.769171" stroke-linecap="round" stroke-linejoin="round"/>
<path d="M78.6809 47.0388C75.002 44.9724 73.0006 41.7351 76.5579 38.3432C79.6697 35.6822 82.0108 38.4741 83.1741 40.8734" stroke="#120071" stroke-width="0.769171" stroke-linecap="round" stroke-linejoin="round"/>
<path d="M76.2817 33.8789C75.8198 33.4965 75.256 33.2575 74.66 33.1914C74.0639 33.1252 73.4615 33.2349 72.9269 33.5067C72.3924 33.7786 71.949 34.2008 71.6513 34.7215C71.3537 35.2421 71.2148 35.8384 71.2517 36.437C71.2886 37.0356 71.4998 37.6103 71.8591 38.0904C72.2185 38.5706 72.7105 38.9351 73.2744 39.1392C73.8383 39.3433 74.4496 39.3781 75.033 39.2392C75.6165 39.1003 76.1465 38.7938 76.558 38.3575C77.0943 37.7177 77.3646 36.8964 77.3132 36.0631C77.2618 35.2298 76.8926 34.448 76.2817 33.8789Z" stroke="#120071" stroke-width="0.769171" stroke-linecap="round" stroke-linejoin="round"/>
<path d="M64.5323 57.712C63.891 57.4931 63.6009 56.4109 63.7333 55.1014" stroke="#120071" stroke-width="0.769171" stroke-linecap="round" stroke-linejoin="round"/>
<path d="M66.9025 56.2143C58.9294 53.6719 45.7428 47.1016 40.7575 44.2033C39.7097 43.5911 38.6459 43.0155 37.5875 42.4293C37.1556 42.1915 36.7289 41.9443 36.3079 41.6877C34.5147 40.5902 34.6066 39.8991 36.8604 40.7571C37.7116 41.0757 38.5937 41.3048 39.4924 41.4405H39.5069C39.8054 41.491 40.1062 41.5201 40.4085 41.5278" stroke="#120071" stroke-width="0.769171" stroke-linecap="round" stroke-linejoin="round"/>
<path d="M117.157 37.5724C115.718 37.45 115.688 35.7089 117.084 35.7257C118.117 35.7387 118.858 35.7839 119.672 35.8275C121.054 35.904 121.025 37.7408 119.891 37.776C118.977 37.7538 118.064 37.6859 117.157 37.5724Z" stroke="#120071" stroke-width="0.769171" stroke-linecap="round" stroke-linejoin="round"/>
<path d="M118.233 31.7416C118.742 31.727 119.105 31.7347 119.6 31.727C120.909 31.7079 120.952 33.5638 119.876 33.661C119.319 33.6985 118.761 33.6985 118.204 33.661" stroke="#120071" stroke-width="0.769171" stroke-linecap="round" stroke-linejoin="round"/>
<path d="M116.808 39.5502C115.426 39.3918 115.426 37.7035 116.779 37.7617C117.782 37.8053 118.494 37.8696 119.28 37.9362C120.602 38.0479 120.545 39.8265 119.454 39.8265C118.785 39.8265 118.087 39.6972 116.808 39.5502Z" stroke="#120071" stroke-width="0.769171" stroke-linecap="round" stroke-linejoin="round"/>
<path d="M118.19 33.7084C118.726 33.723 119.179 33.7658 119.702 33.7811C121.098 33.8225 121.127 35.686 119.964 35.7587C119.266 35.8024 118.524 35.6983 117.187 35.6279C117.037 35.6302 116.889 35.5965 116.755 35.5294C116.621 35.4623 116.505 35.3639 116.417 35.2425C116.329 35.1211 116.272 34.9803 116.25 34.8321C116.229 34.6839 116.243 34.5326 116.292 34.3911C116.359 34.2013 116.484 34.0391 116.651 33.9266" stroke="#120071" stroke-width="0.769171" stroke-linecap="round" stroke-linejoin="round"/>
<path d="M91.3027 46.1227C102.063 40.5244 114.772 30.6035 116.488 30.7236C118.509 30.8652 118.329 30.9532 118.146 34.4171C118.101 35.2589 116.633 35.3477 116.372 32.6568C116.59 34.7232 115.645 36.1322 114.249 36.5829" stroke="#120071" stroke-width="0.769171" stroke-linecap="round" stroke-linejoin="round"/>
<path d="M119.193 39.8118C117.36 39.9863 115.034 39.9572 111.995 42.1843C106.81 45.9893 101.406 49.4853 95.8103 52.654" stroke="#120071" stroke-width="0.769171" stroke-linecap="round" stroke-linejoin="round"/>
<path d="M71.8879 60.1502C72.4114 60.3102 72.8959 60.4311 73.3757 60.562L72.4864 61.7957" stroke="#120071" stroke-width="0.769171" stroke-linecap="round" stroke-linejoin="round"/>
<path d="M71.8878 60.1502C72.6414 62.0989 73.1803 64.1239 73.4949 66.1894C76.0687 68.8504 82.4087 70.9734 84.8983 69.4902C86.3815 64.5921 88.2428 62.9322 88.4754 59.4277C91.2673 58.0172 94.3064 56.345 96.0659 54.7455C96.0659 51.5173 94.1029 47.7045 91.3109 46.1226C88.9896 47.539 86.5969 48.8349 84.1421 50.0051C83.2697 50.3839 82.8916 50.4995 82.4584 50.3395C80.9898 51.0811 78.9104 50.8921 77.0491 50.2959C76.7621 50.3847 76.4598 50.4099 76.1621 50.3686C73.4291 49.9989 70.74 49.3558 68.1354 48.4491C70.5637 49.4073 67.1726 58.3693 64.5437 57.7096C66.9624 58.6088 69.4119 59.4229 71.8878 60.1502Z" stroke="#120071" stroke-width="0.769171" stroke-linecap="round" stroke-linejoin="round"/>
<path d="M82.4495 50.3395C82.1793 50.2363 81.9455 50.0558 81.7774 49.8204C81.6093 49.585 81.5143 49.3053 81.5043 49.0163C81.5426 48.727 81.6199 48.4438 81.7339 48.1744C84.7906 48.6505 84.5174 44.0287 83.1735 40.8748C81.8648 38.3446 79.7555 39.0671 79.3346 41.8054C79.268 42.2386 78.8754 42.0679 78.5639 41.8199C77.4879 41.0783 76.7463 42.9679 78.3458 43.5037C78.5548 44.67 78.6665 45.8524 78.6803 47.0372C78.6726 48.5204 78.4331 49.8689 77.0371 50.2944" stroke="#120071" stroke-width="0.769171" stroke-linecap="round" stroke-linejoin="round"/>
<path d="M63.1218 149.961V135.333H92.6695V149.961" stroke="#120071" stroke-width="0.769171" stroke-linecap="round" stroke-linejoin="round"/>
<path d="M33.5742 149.961V142.647H63.1219V149.961" stroke="#120071" stroke-width="0.769171" stroke-linecap="round" stroke-linejoin="round"/>
<path d="M92.6694 149.961V139.201H122.232V149.961" stroke="#120071" stroke-width="0.769171" stroke-linecap="round" stroke-linejoin="round"/>
<path d="M83.1741 7.4286V25.0961C94.8506 29.3422 106.527 20.8501 118.204 25.0961V7.4286C106.527 3.18258 94.8476 11.6746 83.1741 7.4286Z" stroke="#120071" stroke-width="0.769171" stroke-linecap="round" stroke-linejoin="round"/>
<path d="M113.958 136.38V139.201H102.688V136.38H113.958Z" stroke="#120071" stroke-width="0.769171" stroke-linecap="round" stroke-linejoin="round"/>
<path d="M100.376 111.151C100.38 113.007 101.032 114.804 102.218 116.232C103.405 117.66 105.052 118.63 106.876 118.974V136.379H109.799V118.974C111.626 118.635 113.277 117.667 114.465 116.238C115.652 114.809 116.301 113.009 116.299 111.151H100.376Z" stroke="#120071" stroke-width="0.769171" stroke-linecap="round" stroke-linejoin="round"/>
<path d="M102.572 116.633C101.081 116.691 99.6024 116.342 98.2955 115.622C96.9886 114.902 95.9031 113.838 95.156 112.547H100.511" stroke="#120071" stroke-width="0.769171" stroke-linecap="round" stroke-linejoin="round"/>
<path d="M114.147 116.633C115.638 116.691 117.116 116.342 118.423 115.622C119.73 114.902 120.816 113.838 121.563 112.547H116.226" stroke="#120071" stroke-width="0.769171" stroke-linecap="round" stroke-linejoin="round"/>
<path d="M107.749 74.1579C107.749 74.6642 107.6 75.1592 107.318 75.5802C107.037 76.0013 106.637 76.3293 106.169 76.5227C105.662 76.7329 105.101 76.7743 104.568 76.641C104.035 76.5076 103.56 76.2066 103.211 75.7822C102.863 75.3578 102.66 74.8327 102.633 74.2843C102.606 73.7359 102.757 73.1934 103.061 72.7368C103.366 72.2803 103.81 71.9339 104.327 71.7489C104.844 71.5638 105.407 71.5499 105.932 71.7092C106.458 71.8685 106.918 72.1925 107.245 72.6334C107.572 73.0744 107.749 73.6088 107.749 74.1579Z" stroke="#120071" stroke-width="0.769171" stroke-linecap="round" stroke-linejoin="round"/>
<path d="M109.837 115.209C109.836 115.431 109.787 115.65 109.692 115.85C109.597 116.05 109.459 116.227 109.288 116.367C109.117 116.508 108.916 116.609 108.701 116.663C108.486 116.717 108.262 116.722 108.045 116.679C107.754 116.621 107.488 116.478 107.278 116.268C107.069 116.059 106.926 115.792 106.868 115.501C106.81 115.211 106.839 114.909 106.952 114.636C107.066 114.362 107.258 114.128 107.505 113.963C107.793 113.77 108.139 113.683 108.484 113.717C108.829 113.752 109.152 113.904 109.396 114.15C109.677 114.431 109.836 114.812 109.837 115.209Z" stroke="#120071" stroke-width="0.769171" stroke-linecap="round" stroke-linejoin="round"/>
<path d="M59.3916 22.8131V28.0334" stroke="#120071" stroke-width="0.769171" stroke-linecap="round" stroke-linejoin="round"/>
<path d="M62.0022 25.4236H56.7673" stroke="#120071" stroke-width="0.769171" stroke-linecap="round" stroke-linejoin="round"/>
<path d="M47.6647 99.6342L45.8616 103.654H49.1479L47.3448 107.675" stroke="#120071" stroke-width="0.769171" stroke-linecap="round" stroke-linejoin="round"/>
<path d="M50.7649 69.1429L59.5738 79.5383C61.1442 81.4578 62.3802 81.3851 63.7762 79.5529C66.3783 76.1357 71.134 70.1593 75.103 67.4837" stroke="#120071" stroke-width="0.769171" stroke-linecap="round" stroke-linejoin="round"/>
<path d="M49.5696 69.883L59.2976 81.0942C59.6138 81.4608 60.0086 81.7513 60.4527 81.9441C60.8967 82.1369 61.3785 82.2271 61.8622 82.2078C62.346 82.1879 62.819 82.0591 63.246 81.831C63.6731 81.603 64.0432 81.2816 64.3289 80.8907C67.1476 77.0357 72.0212 70.8572 76.1363 68.0944" stroke="#120071" stroke-width="0.769171" stroke-linecap="round" stroke-linejoin="round"/>
<path d="M76.558 82.1121L73.8242 120.224" stroke="#120071" stroke-width="0.769171" stroke-linecap="round" stroke-linejoin="round"/>
<path d="M51.1982 142.589H43.8113L44.1603 140.32H50.8492L51.1982 142.589Z" stroke="#120071" stroke-width="0.769171" stroke-linecap="round" stroke-linejoin="round"/>
<path d="M44.5091 131.523C42.6042 131.523 38.2273 129.16 38.2273 122.908H42.4588" stroke="#120071" stroke-width="0.769171" stroke-linecap="round" stroke-linejoin="round"/>
<path d="M48.6824 126.666L49.3222 128.789L47.5046 127.524L45.6869 128.789L46.3268 126.666L44.5527 125.328L46.7775 125.27L47.5046 123.176L48.2317 125.27L50.4565 125.328L48.6824 126.666Z" stroke="#120071" stroke-width="0.769171" stroke-linecap="round" stroke-linejoin="round"/>
<path d="M50.849 140.318C48.537 139.504 48.2316 138.675 48.2171 136.334C48.2892 135.417 48.5891 134.532 49.0895 133.76C51.1628 130.631 52.5794 128.158 52.5794 121.182H42.4297C42.4297 127.84 43.7024 130.213 45.8469 133.629C46.3921 134.434 46.7225 135.365 46.8066 136.334C46.7576 138.675 46.5004 139.504 44.1746 140.318H50.849Z" stroke="#120071" stroke-width="0.769171" stroke-linecap="round" stroke-linejoin="round"/>
<path d="M50.5583 131.523C52.4778 131.523 56.7674 129.15 56.7674 122.9H52.5505" stroke="#120071" stroke-width="0.769171" stroke-linecap="round" stroke-linejoin="round"/>
<path d="M133.647 149.961H20.6907" stroke="#120071" stroke-width="0.769171" stroke-linecap="round" stroke-linejoin="round"/>
<path d="M82.1999 60.1694C81.6022 60.1694 81.0289 60.4068 80.6062 60.8295C80.1835 61.2522 79.946 61.8255 79.946 62.4233C79.946 63.021 80.1835 63.5943 80.6062 64.017C81.0289 64.4397 81.6022 64.6771 82.1999 64.6771C82.7977 64.6771 83.371 64.4397 83.7937 64.017C84.2163 63.5943 84.4538 63.021 84.4538 62.4233C84.4538 61.8255 84.2163 61.2522 83.7937 60.8295C83.371 60.4068 82.7977 60.1694 82.1999 60.1694Z" stroke="#120071" stroke-width="0.769171"/>
</svg>
