<svg width="458" height="459" viewBox="0 0 458 459" fill="none" xmlns="http://www.w3.org/2000/svg">
<path d="M324.781 243.046L266.59 258.609C251.034 263.369 234.619 264.639 218.516 262.327C213.79 273.97 211.06 288.533 216.873 299.723V299.766C210.067 315.787 201.712 331.104 191.928 345.501C168.168 342.188 144.612 337.54 121.374 331.58C112.982 343.624 109.107 351.215 111.257 371.354C136.807 379.568 157.732 385.75 182.201 391.241C189.997 392.997 198.132 392.487 205.647 389.77C213.161 387.053 219.742 382.243 224.612 375.907C237.322 358.902 249.015 341.16 259.63 322.775L236.772 314.747C256.676 320.174 282.218 310.153 298.502 301.841V301.884L285.305 357.176C295.624 365.522 311.358 368.676 324.085 366.557L352.834 272.129C354.032 268.188 354.155 263.997 353.192 259.992C352.228 255.987 350.212 252.311 347.351 249.346C344.491 246.381 340.891 244.234 336.923 243.126C332.955 242.018 328.763 241.99 324.781 243.046Z" fill="#FECFC4"/>
<path d="M345.575 182.304L356.816 180.273L329.795 31.6837L314.88 13.4397L345.575 182.304Z" fill="#FECFC4"/>
<path d="M313.411 13.6992L305.845 36.0502L332.908 184.639L344.105 182.607L313.411 13.6992Z" fill="#FECFC4"/>
<path d="M191.582 272.4C191.453 271.103 189.421 269.72 184.708 269.115L185.573 275.816C189.161 275.383 191.719 273.913 191.582 272.4Z" fill="#6153BD"/>
<path d="M167.759 269.634C161.843 270.544 159.477 272.052 159.418 273.438C159.345 275.081 162.574 276.551 167.027 276.378C167.402 276.052 167.686 275.636 167.848 275.167C168.053 273.327 168.024 271.467 167.761 269.634H167.759Z" fill="#6153BD"/>
<path d="M117.18 337.638C112.367 335.767 107.444 334.193 102.438 332.926C89.1223 340.578 70.5825 348.769 51.813 364.961C51.4457 365.266 51.1753 365.671 51.0348 366.128C62.5436 366.603 74.0707 366.285 85.534 365.177C93.6184 364.528 102.567 363.145 110.652 364.355C110.44 354.291 111.573 347.051 117.18 337.638Z" fill="#6153BD"/>
<path d="M318.512 392.972C317.829 384.672 316.394 375.42 317.777 367.261C308.484 367.565 299.274 365.434 291.06 361.079C289.307 365.696 287.792 370.4 286.52 375.172C294.561 388.704 302.862 407.856 319.461 427.913C319.941 416.259 319.622 404.584 318.512 392.972Z" fill="#6153BD"/>
<path d="M242.078 131.421C241.746 130.622 241.151 129.959 240.393 129.544C239.634 129.129 238.756 128.984 237.904 129.136C237.052 129.287 236.277 129.724 235.707 130.376C235.138 131.027 234.808 131.853 234.771 132.718C234.685 132.718 234.642 132.761 234.555 132.761C234.191 131.938 233.548 131.27 232.74 130.873C231.932 130.477 231.01 130.379 230.136 130.595C229.262 130.811 228.492 131.331 227.964 132.06C227.435 132.79 227.182 133.683 227.249 134.581C227.206 134.581 227.162 134.624 227.119 134.624C226.688 133.74 225.932 133.057 225.008 132.719C224.085 132.38 223.066 132.413 222.166 132.809C221.265 133.206 220.554 133.936 220.18 134.845C219.806 135.755 219.8 136.775 220.161 137.689C219.765 136.971 219.146 136.401 218.397 136.065C217.648 135.73 216.811 135.647 216.011 135.83C215.406 135.978 214.845 136.27 214.377 136.681C213.909 137.092 213.547 137.61 213.322 138.191C213.097 138.772 213.016 139.398 213.085 140.017C213.154 140.636 213.372 141.229 213.72 141.746C216.27 146.545 229.326 172.139 226.387 181.338C230.105 172.951 228.207 161.235 227.424 160.586C219.815 154.275 225.435 147.228 229.11 151.94C230.883 154.188 231.704 154.102 232.18 152.675C233.693 145.326 242.815 134.604 247.652 149.346C241.447 129.332 242.432 132.488 242.078 131.421Z" fill="#6153BD"/>
<path d="M210.216 225.926C206.485 227.239 202.87 228.858 199.408 230.768L207.924 221.127C208.773 222.683 209.54 224.285 210.216 225.926Z" fill="#6153BD"/>
<path d="M267.973 252.687L248.087 221.603L268.319 244.905C268.488 247.504 268.372 250.113 267.973 252.687Z" fill="#6153BD"/>
<path d="M264.342 314.552C262.786 317.282 261.229 319.999 259.586 322.766L234.685 314.033C243.547 317.189 254.442 316.67 264.342 314.552Z" fill="#6153BD"/>
<path d="M348.904 227.31L356.902 225.84L354.568 213.043C352.233 213.562 349.466 213.953 346.604 214.556L348.904 227.31Z" fill="#6153BD"/>
<path d="M349.812 187.103L348.818 181.743L340.82 183.213L341.814 188.573C343.259 188.314 348.961 187.279 349.812 187.103Z" fill="#6153BD"/>
<path d="M387.554 420.297C387.629 420.892 387.931 421.434 388.397 421.811C388.863 422.188 389.456 422.37 390.053 422.32C390.65 422.27 391.205 421.991 391.601 421.542C391.997 421.092 392.204 420.507 392.179 419.908L391.834 416.268C391.782 415.654 391.489 415.087 391.019 414.689C390.548 414.292 389.94 414.098 389.326 414.149C388.713 414.201 388.145 414.494 387.748 414.964C387.35 415.435 387.156 416.043 387.208 416.657L387.554 420.297Z" fill="#6153BD"/>
<path d="M303.51 416.363C291.879 427.91 278.713 437.802 264.385 445.761C234.512 435.602 207.273 416.363 184.319 391.678" stroke="#120071" stroke-width="2.28681" stroke-linecap="round" stroke-linejoin="round"/>
<path d="M322.619 126.146C291.798 114.191 261.789 100.241 232.783 84.384C192.313 114.353 150.102 141.897 106.372 166.871L112.035 231.373C115.723 268.549 127.009 304.571 145.194 337.206" stroke="#120071" stroke-width="2.28681" stroke-linecap="round" stroke-linejoin="round"/>
<path d="M318.771 399.633C361.528 347.279 382.884 272.271 377.264 208.114L371.601 143.655C363.942 141.167 356.318 138.573 348.731 135.873" stroke="#120071" stroke-width="2.28681" stroke-linecap="round" stroke-linejoin="round"/>
<path d="M218.473 189.006C231.875 184.38 228.514 161.54 227.422 160.602C219.895 154.149 225.42 147.253 229.108 151.956C230.398 153.603 231.759 154.623 232.203 152.568C233.93 144.57 244.601 132.699 248.865 154.117C254.692 183.388 233.474 171.108 233.474 171.108" stroke="#120071" stroke-width="2.28681" stroke-linecap="round" stroke-linejoin="round"/>
<path d="M167.026 276.378C162.574 276.551 159.345 275.078 159.418 273.438C159.584 269.693 173.177 268.98 176.874 268.867C180.465 268.757 191.35 268.814 191.582 272.4C191.582 272.901 191.166 275.131 185.573 275.813" stroke="#120071" stroke-width="2.28681" stroke-linecap="round" stroke-linejoin="round"/>
<path d="M185.66 277.113C186.44 282.38 186.859 287.695 186.913 293.022C186.395 295.919 179.177 310.483 174.679 316.8C171.821 320.818 167.937 321.99 171.35 313.903C173.303 309.048 174.921 304.065 176.192 298.988C179.741 285.5 169.791 282.646 165.859 288.137C160.219 296.017 155.914 298.34 157.818 292.33C158.983 288.656 159.591 286.451 160.412 283.641C161.049 281.477 165.297 278.259 166.97 276.462C167.345 276.118 167.632 275.688 167.805 275.21C167.987 273.37 167.959 271.513 167.718 269.677C173.314 268.846 178.989 268.687 184.622 269.201C184.622 269.201 184.906 271.179 185.66 277.113Z" stroke="#120071" stroke-width="2.28681" stroke-linecap="round" stroke-linejoin="round"/>
<path d="M174.29 305.598C171.452 309.002 168.198 312.038 164.606 314.633C160.15 317.701 158.385 315.373 163.395 309.835C166.905 305.956 170.005 301.726 172.647 297.211" stroke="#120071" stroke-width="2.28681" stroke-linecap="round" stroke-linejoin="round"/>
<path d="M169.193 294.795C171.286 296.54 173.632 297.955 176.153 298.988" stroke="#120071" stroke-width="2.28681" stroke-linecap="round" stroke-linejoin="round"/>
<path d="M168.669 303.225C165.26 305.28 161.616 306.917 157.816 308.101C152.89 309.578 153.265 306.572 158.421 303.864C162.546 301.479 166.401 298.657 169.921 295.445" stroke="#120071" stroke-width="2.28681" stroke-linecap="round" stroke-linejoin="round"/>
<path d="M163.438 300.674C160.782 301.369 158.055 301.761 155.311 301.841C151.593 301.696 150.385 299.689 155.873 298.383C160.203 297.376 164.348 295.699 168.16 293.411C168.348 290.668 169.13 287.998 170.451 285.586" stroke="#120071" stroke-width="2.28681" stroke-linecap="round" stroke-linejoin="round"/>
<path d="M199.407 230.768L207.924 221.127C208.787 222.676 209.562 224.271 210.254 225.905" stroke="#120071" stroke-width="2.28681" stroke-linecap="round" stroke-linejoin="round"/>
<path d="M267.973 252.687L248.087 221.646L268.319 244.948" stroke="#120071" stroke-width="2.28681" stroke-linecap="round" stroke-linejoin="round"/>
<path d="M191.582 272.4C190.847 262.932 189.762 240.797 189.853 235.782C195.542 233.068 203.642 227.992 210.254 225.914C214.539 236.203 216.741 249.913 218.473 262.37C234.575 264.703 250.995 263.433 266.547 258.652C268.037 254.246 268.64 249.588 268.319 244.948C268.092 244.397 278.506 258.616 293.481 249.228L344.235 218.014C341.684 206.082 335.891 194.928 326.121 189.697L284.359 218.367C266.547 191.303 266.545 180.225 237.625 184.464C216.784 187.524 195.139 197.017 174.852 210.835C159.727 221.136 159.379 226.788 158.899 241.876C158.458 252.398 158.646 262.936 159.461 273.435" stroke="#120071" stroke-width="2.28681" stroke-linecap="round" stroke-linejoin="round"/>
<path d="M310.903 294.924C310.903 294.924 306.061 298.037 298.495 301.885" stroke="#120071" stroke-width="2.28681" stroke-linecap="round" stroke-linejoin="round"/>
<path d="M264.304 314.811C252.493 336.084 239.218 356.51 224.573 375.941C219.704 382.278 213.124 387.09 205.61 389.81C198.095 392.529 189.959 393.042 182.163 391.288C157.695 385.784 136.769 379.616 111.219 371.358C110.536 362.874 109.853 354.812 113.221 345.765C115.244 340.689 117.96 335.917 121.292 331.585C144.53 337.545 168.086 342.192 191.847 345.506C201.746 331.121 210.066 315.711 216.662 299.543" stroke="#120071" stroke-width="2.28681" stroke-linecap="round" stroke-linejoin="round"/>
<path d="M240 173.469C239.522 177.479 238.712 180.978 241.82 183.991" stroke="#120071" stroke-width="2.28681" stroke-linecap="round" stroke-linejoin="round"/>
<path d="M51.0349 366.123C49.7379 366.036 48.3545 366.002 47.0575 365.906C46.7075 365.881 46.3677 365.776 46.064 365.6C45.7602 365.424 45.5003 365.182 45.3038 364.891C45.1074 364.6 44.9794 364.268 44.9297 363.921C44.8799 363.573 44.9096 363.219 45.0165 362.885C45.1599 362.439 45.4329 362.045 45.8038 361.756C54.5441 354.921 63.8429 348.832 73.6021 343.553C82.2144 338.857 89.9438 335.209 96.1693 331.535C98.2876 331.967 100.363 332.356 102.438 332.918" stroke="#120071" stroke-width="2.28681" stroke-linecap="round" stroke-linejoin="round"/>
<path d="M117.18 337.638C111.605 346.996 110.436 354.23 110.652 364.355C102.567 363.145 93.6184 364.526 85.534 365.176C74.0707 366.282 62.5436 366.599 51.0348 366.123C51.1752 365.667 51.4456 365.261 51.8129 364.956C70.5939 348.762 89.1291 340.573 102.438 332.921C107.44 334.204 112.362 335.779 117.18 337.638Z" stroke="#120071" stroke-width="2.28681" stroke-linecap="round" stroke-linejoin="round"/>
<path d="M319.461 427.904C319.377 429.06 319.331 430.254 319.204 431.408C319.167 431.875 318.99 432.32 318.696 432.685C318.403 433.051 318.007 433.319 317.559 433.456C317.109 433.591 316.63 433.587 316.182 433.447C315.736 433.304 315.343 433.03 315.053 432.662C299.676 413.059 292.184 394.747 284.834 382.296C285.31 379.875 285.915 377.541 286.52 375.163" stroke="#120071" stroke-width="2.28681" stroke-linecap="round" stroke-linejoin="round"/>
<path d="M317.32 379.477C317.017 375.399 317.156 371.3 317.734 367.251C308.441 367.556 299.23 365.425 291.016 361.069C289.271 365.957 287.831 370.077 286.52 375.163C294.561 388.695 302.86 407.844 319.461 427.904C320.578 407.94 317.809 388.194 317.32 379.477Z" stroke="#120071" stroke-width="2.28681" stroke-linecap="round" stroke-linejoin="round"/>
<path d="M321.063 186.801L368.661 178.111" stroke="#120071" stroke-width="2.28681" stroke-linecap="round" stroke-linejoin="round"/>
<path d="M55.4445 291.033L65.1285 302.403L73.6452 283.943" stroke="#120071" stroke-width="2.28681" stroke-linecap="round" stroke-linejoin="round"/>
<path d="M402.728 419.173L401.474 404.69L375.708 406.938L376.962 421.421C377.089 423.129 377.554 424.795 378.33 426.321C379.106 427.848 380.177 429.206 381.481 430.315C382.786 431.425 384.297 432.265 385.929 432.786C387.56 433.307 389.279 433.499 390.985 433.351C392.691 433.202 394.35 432.715 395.867 431.92C397.383 431.124 398.727 430.035 399.819 428.716C400.912 427.397 401.731 425.874 402.231 424.236C402.73 422.598 402.899 420.877 402.728 419.173Z" stroke="#120071" stroke-width="2.28681" stroke-linecap="round" stroke-linejoin="round"/>
<path d="M375.708 406.939L374.887 397.687C374.637 394.296 375.731 390.942 377.933 388.351C380.138 385.763 383.273 384.147 386.66 383.852C390.047 383.556 393.414 384.605 396.034 386.772C398.653 388.942 400.313 392.055 400.653 395.439" stroke="#120071" stroke-width="2.28681" stroke-linecap="round" stroke-linejoin="round"/>
<path d="M387.554 420.297C387.629 420.892 387.931 421.434 388.397 421.811C388.863 422.188 389.456 422.37 390.053 422.32C390.65 422.27 391.205 421.991 391.601 421.541C391.997 421.092 392.204 420.507 392.179 419.908L391.834 416.267C391.782 415.654 391.489 415.086 391.019 414.689C390.548 414.292 389.94 414.098 389.326 414.149C388.713 414.201 388.145 414.494 387.748 414.964C387.35 415.434 387.156 416.043 387.208 416.657L387.554 420.297Z" stroke="#120071" stroke-width="2.28681" stroke-linecap="round" stroke-linejoin="round"/>
<path d="M134.084 94.1543C134.197 95.2047 134.1 96.2672 133.798 97.2796C133.496 98.292 132.995 99.2339 132.324 100.05C131.653 100.866 130.826 101.541 129.891 102.033C128.957 102.526 127.933 102.827 126.881 102.919C125.828 103.011 124.768 102.892 123.762 102.569C122.756 102.246 121.824 101.726 121.022 101.039C120.22 100.351 119.563 99.5105 119.089 98.566C118.616 97.6214 118.336 96.5919 118.265 95.5378C118.127 93.4645 118.806 91.4194 120.158 89.8414C121.51 88.2634 123.427 87.2782 125.497 87.0972C127.567 86.9162 129.625 87.5537 131.231 88.8731C132.836 90.1924 133.86 92.0884 134.084 94.1543Z" stroke="#120071" stroke-width="2.28681" stroke-linecap="round" stroke-linejoin="round"/>
<path d="M355.562 206.298C360.015 205.909 360.795 211.919 357.155 212.481C356.852 212.528 348.206 214.037 343.58 215.247C341.116 205.78 336.526 197.133 329.443 191.811C332.772 190.082 336.922 189.39 348.724 187.26C350.41 186.958 354.991 186.041 356.593 185.747C360.955 184.946 362.147 191.142 358.581 192.016C358.194 192.111 354.431 192.926 353.999 193.01C354.215 192.967 356.201 192.876 356.42 192.837C361.071 192.027 362.213 198.371 358.408 199.236L354.734 199.798C354.993 199.754 355.814 199.668 356.074 199.625C360.656 199.106 361.637 205.138 357.894 205.937C357.332 206.073 356.167 206.212 355.562 206.298Z" stroke="#120071" stroke-width="2.28681" stroke-linecap="round" stroke-linejoin="round"/>
<path d="M247.654 149.362L242.121 131.42C241.765 130.626 241.155 129.973 240.386 129.566C239.617 129.158 238.734 129.019 237.877 129.171C237.02 129.322 236.238 129.756 235.656 130.403C235.073 131.049 234.723 131.872 234.662 132.74C234.373 132.126 233.929 131.597 233.375 131.206C232.821 130.814 232.175 130.572 231.499 130.504C230.824 130.436 230.143 130.544 229.521 130.817C228.9 131.091 228.36 131.52 227.954 132.064C227.412 132.794 227.139 133.69 227.183 134.599C225.074 130.003 218.081 133.361 220.159 137.689C219.886 137.194 219.507 136.767 219.047 136.438C218.588 136.11 218.06 135.889 217.504 135.791C216.948 135.693 216.377 135.721 215.833 135.873C215.289 136.025 214.786 136.298 214.361 136.67C213.647 137.286 213.183 138.143 213.056 139.078C212.93 140.013 213.149 140.962 213.674 141.746C216.225 146.545 229.281 172.095 226.341 181.303" stroke="#120071" stroke-width="2.28681" stroke-linecap="round" stroke-linejoin="round"/>
<path d="M396.676 105.092L397.324 112.701" stroke="#120071" stroke-width="2.28681" stroke-linecap="round" stroke-linejoin="round"/>
<path d="M390.796 120.483L383.187 121.174" stroke="#120071" stroke-width="2.28681" stroke-linecap="round" stroke-linejoin="round"/>
<path d="M412.715 118.537L405.106 119.229" stroke="#120071" stroke-width="2.28681" stroke-linecap="round" stroke-linejoin="round"/>
<path d="M399.227 134.619L398.578 127.01" stroke="#120071" stroke-width="2.28681" stroke-linecap="round" stroke-linejoin="round"/>
<path d="M405.106 119.229C403.691 119.355 402.27 119.057 401.023 118.374C399.777 117.691 398.762 116.654 398.107 115.393C397.672 114.555 397.406 113.641 397.324 112.701C397.407 113.641 397.304 114.587 397.02 115.487C396.737 116.387 396.279 117.222 395.673 117.945C395.067 118.667 394.324 119.264 393.487 119.699C392.65 120.135 391.736 120.401 390.796 120.483C392.211 120.359 393.631 120.657 394.877 121.34C396.123 122.023 397.138 123.06 397.795 124.319C398.23 125.156 398.496 126.071 398.578 127.011C398.452 125.595 398.75 124.175 399.433 122.929C400.116 121.682 401.153 120.667 402.414 120.012C403.252 119.577 404.166 119.311 405.106 119.229Z" stroke="#120071" stroke-width="2.28681" stroke-linecap="round" stroke-linejoin="round"/>
<path d="M259.716 322.811L235.465 314.397" stroke="#120071" stroke-width="2.28681" stroke-linecap="round" stroke-linejoin="round"/>
<path d="M266.504 258.652L324.694 243.089C328.682 242.023 332.883 242.043 336.861 243.146C340.839 244.249 344.45 246.395 347.32 249.362C350.19 252.329 352.215 256.009 353.186 260.022C354.156 264.034 354.036 268.233 352.838 272.184L324.089 366.612C317.618 367.643 311.013 367.454 304.612 366.057C297.574 364.669 290.962 361.646 285.309 357.231L298.507 301.894C283.683 309.489 262.806 317.437 245.315 316.176C225.312 314.734 210.557 301.878 214.031 277.95C214.843 272.607 216.34 267.39 218.484 262.429" stroke="#120071" stroke-width="2.28681" stroke-linecap="round" stroke-linejoin="round"/>
<path d="M284.359 218.36L286.65 221.646" stroke="#120071" stroke-width="2.28681" stroke-linecap="round" stroke-linejoin="round"/>
<path d="M305.845 36.0503L314.093 13.7584L329.796 31.6838L356.816 180.273L332.908 184.639L305.845 36.0503Z" stroke="#120071" stroke-width="2.28681" stroke-linejoin="round"/>
<path d="M314.109 13.7743L344.811 182.245" stroke="#120071" stroke-width="2.28681" stroke-linecap="round"/>
<path d="M348.904 227.309L356.902 225.839L354.568 213.043C352.233 213.562 349.466 213.953 346.604 214.556L348.904 227.309Z" stroke="#120071" stroke-width="2.28681" stroke-linejoin="round"/>
<path d="M349.812 187.103L348.818 181.742L340.82 183.212L341.814 188.573C343.259 188.314 348.961 187.278 349.812 187.103Z" stroke="#120071" stroke-width="2.28681" stroke-linejoin="round"/>
</svg>
