<svg width="155" height="159" viewBox="0 0 155 159" fill="none" xmlns="http://www.w3.org/2000/svg">
<g filter="url(#filter0_d_714_7905)">
<path d="M34.646 39.1858V17.4559H122.321V74.6908H96.1146" stroke="#120071" stroke-width="0.769171" stroke-linecap="round" stroke-linejoin="round"/>
<path d="M34.646 24.104H122.321" stroke="#120071" stroke-width="0.769171" stroke-linecap="round" stroke-linejoin="round"/>
<path d="M38.6058 22.114C39.3379 22.114 39.9314 21.5205 39.9314 20.7884C39.9314 20.0564 39.3379 19.4629 38.6058 19.4629C37.8738 19.4629 37.2803 20.0564 37.2803 20.7884C37.2803 21.5205 37.8738 22.114 38.6058 22.114Z" stroke="#120071" stroke-width="0.769171" stroke-linecap="round" stroke-linejoin="round"/>
<path d="M42.8832 22.114C43.6153 22.114 44.2087 21.5205 44.2087 20.7884C44.2087 20.0564 43.6153 19.4629 42.8832 19.4629C42.1511 19.4629 41.5576 20.0564 41.5576 20.7884C41.5576 21.5205 42.1511 22.114 42.8832 22.114Z" stroke="#120071" stroke-width="0.769171" stroke-linecap="round" stroke-linejoin="round"/>
<path d="M47.1615 22.114C47.8936 22.114 48.487 21.5205 48.487 20.7884C48.487 20.0564 47.8936 19.4629 47.1615 19.4629C46.4294 19.4629 45.8359 20.0564 45.8359 20.7884C45.8359 21.5205 46.4294 22.114 47.1615 22.114Z" stroke="#120071" stroke-width="0.769171" stroke-linecap="round" stroke-linejoin="round"/>
<path d="M96.1145 74.6909C98.0997 70.7663 101.03 61.8878 101.251 61.0605C101.48 60.2079 101.44 60.0755 101.062 59.8857C100.683 59.6959 97.1584 57.7818 95.2045 56.7961C93.2506 55.8104 89.3536 53.2465 89.3536 53.2465C86.8066 55.6754 84.5887 58.4269 82.7557 61.4309C81.3904 57.3104 78.6811 49.7681 72.8669 45.9889C71.2765 44.9558 67.8449 43.9019 62.8603 44.7912C62.8603 44.7912 63.3899 47.189 60.5398 48.1892C57.6897 49.1895 55.0815 45.7655 55.0815 45.7655C51.0945 46.6922 47.5813 49.0393 45.1989 52.3679C44.2074 50.6742 43.106 49.0472 41.9018 47.4974C41.9018 47.4974 39.1344 49.1528 36.4956 50.3957C34.1575 51.3477 31.7382 52.0867 29.2671 52.6036C30.3745 60.6694 34.1537 73.344 34.6458 74.6909H96.1145Z" stroke="#120071" stroke-width="0.769171" stroke-linecap="round" stroke-linejoin="round"/>
<path d="M45.1992 52.3679C47.2511 55.8831 51.2116 63.909 51.2116 63.909" stroke="#120071" stroke-width="0.769171" stroke-linecap="round" stroke-linejoin="round"/>
<path d="M82.7559 61.4307C81.3561 63.9409 80.7844 65.1333 80.7844 65.1333" stroke="#120071" stroke-width="0.769171" stroke-linecap="round" stroke-linejoin="round"/>
<path d="M73.9961 58.4142C75.2365 63.7716 76.0899 69.2113 76.55 74.6911" stroke="#120071" stroke-width="0.769171" stroke-linecap="round" stroke-linejoin="round"/>
<path d="M107.329 51.3786C105.8 51.3614 104.298 51.7818 103 52.5901C104.558 51.6306 106.026 50.5344 107.389 49.3145C107.937 48.8806 108.349 48.2331 107.925 47.679C107 46.6589 102.962 49.3957 102.039 50.0095C103.575 48.919 105.022 47.7091 106.368 46.391C106.809 46.03 107.13 45.5423 107.286 44.9935C107.316 44.8907 107.324 44.7829 107.311 44.6767C107.297 44.5704 107.263 44.468 107.209 44.3758C107.154 44.2835 107.082 44.2034 106.995 44.1402C106.909 44.077 106.81 44.0323 106.706 44.0085C106.331 43.9808 105.954 44.0346 105.602 44.166C105.249 44.2974 104.93 44.5035 104.665 44.77C103.193 45.887 101.75 47.0413 100.337 48.2331C104.558 44.5596 105.089 44.2802 105.089 43.4254C105.094 43.3187 105.075 43.2121 105.031 43.1144C104.988 43.0167 104.923 42.9305 104.84 42.8628C104.647 42.7559 104.421 42.7266 104.206 42.781C103.296 42.9721 102.433 43.3418 101.666 43.8685C99.5524 45.1729 97.613 46.7394 95.8926 48.5308C96.1222 46.9826 97.0543 45.5216 96.9954 43.9443C97.0069 43.7289 96.9457 43.5158 96.8225 43.3389C96.6992 43.22 96.54 43.1456 96.3694 43.1273C96.1995 43.109 96.0273 43.1479 95.8819 43.2379C95.5949 43.426 95.3546 43.677 95.1793 43.9718C91.7728 48.8278 92.4134 48.4872 90.0378 53.6914C94.3183 56.4535 94.1339 56.1902 100.446 59.5615C100.927 58.575 101.556 57.3214 101.929 56.5254C101.994 56.3488 102.098 56.1895 102.234 56.0603C102.371 55.9312 102.536 55.8357 102.715 55.7815C104.577 54.9703 106.592 54.2226 107.843 52.6269C108.354 51.9978 108.223 51.4268 107.329 51.3786Z" stroke="#120071" stroke-width="0.769171" stroke-linecap="round" stroke-linejoin="round"/>
<path d="M30.6113 52.293C34.7769 51.2759 36.776 50.5083 41.684 47.6245C40.184 42.2543 40.7143 42.6499 38.1436 37.4381C38.0146 37.1201 37.8152 36.8354 37.5604 36.6054C37.4301 36.4943 37.2666 36.4297 37.0955 36.4217C36.9244 36.4137 36.7555 36.4627 36.6153 36.561C36.4656 36.7174 36.3712 36.9184 36.3466 37.1335C36.0474 38.6917 36.7469 40.2713 36.7362 41.8326C35.3101 39.7995 33.6319 37.9553 31.7417 36.3444C31.0667 35.7056 30.2714 35.2074 29.4021 34.8788C29.1991 34.7924 28.9707 34.787 28.7638 34.8635C28.6713 34.9178 28.5929 34.9932 28.535 35.0835C28.4772 35.1738 28.4415 35.2765 28.4309 35.3832C28.2977 36.2434 28.8732 36.6896 32.3937 40.8606C31.1779 39.4754 29.9278 38.1164 28.6436 36.7837C28.4211 36.4804 28.1358 36.2285 27.8073 36.0451C27.4787 35.8616 27.1146 35.7511 26.7395 35.7207C26.6328 35.7277 26.5286 35.7564 26.4334 35.8052C26.3382 35.8539 26.2539 35.9216 26.1858 36.0042C26.1177 36.0867 26.0672 36.1822 26.0374 36.2849C26.0075 36.3877 25.9991 36.4955 26.0124 36.6016C26.0857 37.1675 26.3282 37.6981 26.7081 38.1238C27.8338 39.6282 29.0759 41.0418 30.423 42.3515C29.4985 41.5019 26.03 38.2891 24.9662 39.1493C24.4604 39.6315 24.7688 40.3371 25.2448 40.8491C26.4062 42.2602 27.6898 43.5661 29.0806 44.7515C27.92 43.7607 26.5021 43.1195 24.9915 42.9025C24.1014 42.8152 23.8856 43.3464 24.2882 44.0642C25.2831 45.8352 27.1604 46.8791 28.8763 47.9674C29.0464 48.0462 29.1954 48.1642 29.3108 48.312C29.4262 48.4597 29.5047 48.6329 29.5398 48.8169C29.8046 49.7261 30.2845 51.2177 30.6113 52.293Z" stroke="#120071" stroke-width="0.769171" stroke-linecap="round" stroke-linejoin="round"/>
<path d="M35.8386 47.0205C36.2749 44.9297 36.7394 41.8324 36.7394 41.8324" stroke="#120071" stroke-width="0.769171" stroke-linecap="round" stroke-linejoin="round"/>
<path d="M95.9645 53.9213C95.9071 51.8465 95.8918 48.5311 95.8918 48.5311" stroke="#120071" stroke-width="0.769171" stroke-linecap="round" stroke-linejoin="round"/>
<path d="M34.5183 54.1098C34.5183 53.8847 34.4515 53.6647 34.3265 53.4776C34.2015 53.2904 34.0237 53.1446 33.8158 53.0584C33.6078 52.9723 33.379 52.9497 33.1583 52.9937C32.9375 53.0376 32.7347 53.146 32.5755 53.3051C32.4164 53.4643 32.308 53.6671 32.2641 53.8878C32.2201 54.1086 32.2427 54.3374 32.3288 54.5454C32.415 54.7533 32.5609 54.931 32.748 55.0561C32.9352 55.1811 33.1552 55.2479 33.3803 55.2479C33.6821 55.2479 33.9716 55.128 34.1849 54.9146C34.3984 54.7011 34.5183 54.4117 34.5183 54.1098Z" fill="#6153BD"/>
<path d="M41.4865 57.4754C41.4867 57.2502 41.4201 57.0301 41.2951 56.8429C41.1701 56.6556 40.9925 56.5097 40.7845 56.4234C40.5766 56.3372 40.3478 56.3145 40.1269 56.3583C39.9061 56.4021 39.7033 56.5104 39.544 56.6696C39.3848 56.8287 39.2763 57.0315 39.2324 57.2523C39.1884 57.4731 39.2109 57.7019 39.297 57.9099C39.3831 58.1179 39.529 58.2957 39.7162 58.4208C39.9034 58.5458 40.1234 58.6126 40.3485 58.6126C40.4979 58.6127 40.6459 58.5834 40.7839 58.5263C40.922 58.4691 41.0474 58.3854 41.1531 58.2798C41.2588 58.1742 41.3427 58.0487 41.3999 57.9108C41.4571 57.7727 41.4865 57.6248 41.4865 57.4754Z" fill="#6153BD"/>
<path d="M36.3619 70.0685C36.1368 70.0683 35.9167 70.1349 35.7295 70.2599C35.5423 70.3849 35.3962 70.5625 35.31 70.7704C35.2237 70.9784 35.2011 71.2072 35.2449 71.4281C35.2887 71.6489 35.3971 71.8517 35.5562 72.011C35.7153 72.1701 35.9181 72.2787 36.1389 72.3226C36.3596 72.3666 36.5885 72.3441 36.7965 72.258C37.0045 72.1719 37.1823 72.026 37.3074 71.8388C37.4325 71.6517 37.4992 71.4316 37.4992 71.2065C37.4994 71.0571 37.47 70.9091 37.4129 70.7711C37.3558 70.633 37.272 70.5076 37.1664 70.4019C37.0607 70.2962 36.9354 70.2123 36.7973 70.1551C36.6593 70.0979 36.5114 70.0685 36.3619 70.0685Z" fill="#6153BD"/>
<path d="M47.0313 59.9049C46.8063 59.9049 46.5865 59.9716 46.3995 60.0965C46.2124 60.2215 46.0667 60.3992 45.9806 60.6069C45.8945 60.8148 45.872 61.0435 45.9159 61.264C45.9597 61.4847 46.0681 61.6873 46.2271 61.8464C46.3862 62.0054 46.5888 62.1137 46.8094 62.1576C47.03 62.2015 47.2587 62.179 47.4665 62.0929C47.6743 62.0068 47.8519 61.861 47.9769 61.674C48.1019 61.487 48.1685 61.2671 48.1685 61.0422C48.1687 60.8928 48.1393 60.7449 48.0822 60.6069C48.0251 60.4688 47.9413 60.3434 47.8357 60.2377C47.7301 60.1321 47.6046 60.0484 47.4667 59.9912C47.3286 59.9341 47.1807 59.9048 47.0313 59.9049Z" fill="#6153BD"/>
<path d="M56.7801 71.3916C56.5553 71.3916 56.3356 71.4582 56.1486 71.583C55.9617 71.7078 55.816 71.8852 55.7298 72.0928C55.6436 72.3004 55.6208 72.5288 55.6644 72.7493C55.708 72.9699 55.8159 73.1725 55.9746 73.3317C56.1333 73.4909 56.3355 73.5995 56.5559 73.6438C56.7762 73.6881 57.0048 73.6661 57.2127 73.5807C57.4205 73.4952 57.5984 73.35 57.7238 73.1635C57.8493 72.977 57.9166 72.7575 57.9174 72.5327C57.918 72.383 57.889 72.2346 57.8321 72.0962C57.7752 71.9577 57.6915 71.8318 57.5858 71.7258C57.4801 71.6197 57.3546 71.5356 57.2163 71.4783C57.078 71.421 56.9298 71.3914 56.7801 71.3916Z" fill="#6153BD"/>
<path d="M52.1229 56.3385C51.8979 56.3385 51.678 56.4052 51.491 56.5302C51.304 56.6551 51.1582 56.8327 51.0721 57.0406C50.9861 57.2484 50.9635 57.4771 51.0075 57.6976C51.0513 57.9183 51.1596 58.1209 51.3187 58.28C51.4778 58.439 51.6804 58.5473 51.901 58.5912C52.1216 58.6351 52.3503 58.6126 52.5581 58.5265C52.7659 58.4404 52.9435 58.2947 53.0685 58.1076C53.1935 57.9206 53.2601 57.7007 53.2601 57.4758C53.2601 57.1742 53.1404 56.8849 52.9271 56.6716C52.7138 56.4583 52.4245 56.3385 52.1229 56.3385Z" fill="#6153BD"/>
<path d="M61.2479 62.1027C61.876 62.1027 62.3851 61.5935 62.3851 60.9654C62.3851 60.3373 61.876 59.8281 61.2479 59.8281C60.6198 59.8281 60.1106 60.3373 60.1106 60.9654C60.1106 61.5935 60.6198 62.1027 61.2479 62.1027Z" fill="#6153BD"/>
<path d="M64.3873 71.4674C65.0154 71.4674 65.5245 70.9583 65.5245 70.3301C65.5245 69.702 65.0154 69.1929 64.3873 69.1929C63.7592 69.1929 63.25 69.702 63.25 70.3301C63.25 70.9583 63.7592 71.4674 64.3873 71.4674Z" fill="#6153BD"/>
<path d="M57.9256 52.5376C57.7005 52.5376 57.4805 52.6043 57.2934 52.7294C57.1063 52.8544 56.9604 53.0322 56.8742 53.2402C56.7881 53.4481 56.7655 53.6769 56.8095 53.8977C56.8534 54.1185 56.9618 54.3212 57.121 54.4804C57.2801 54.6395 57.4829 54.7479 57.7036 54.7918C57.9244 54.8357 58.1532 54.8132 58.3612 54.727C58.5691 54.6409 58.7468 54.4951 58.8719 54.3079C58.9969 54.1208 59.0637 53.9007 59.0637 53.6756C59.0637 53.3738 58.9438 53.0843 58.7304 52.871C58.5169 52.6575 58.2275 52.5376 57.9256 52.5376Z" fill="#6153BD"/>
<path d="M68.4361 46.7817C68.6611 46.7817 68.881 46.715 69.0681 46.5901C69.2552 46.4652 69.401 46.2877 69.4872 46.0799C69.5735 45.8721 69.5962 45.6434 69.5525 45.4228C69.5089 45.2021 69.4008 44.9993 69.242 44.8401C69.0831 44.6807 68.8806 44.5721 68.66 44.5279C68.4394 44.4836 68.2108 44.5057 68.0027 44.5914C67.7947 44.6771 67.6168 44.8225 67.4913 45.0092C67.366 45.1959 67.2987 45.4157 67.2981 45.6406C67.2977 45.7903 67.3268 45.9386 67.3838 46.0771C67.4408 46.2155 67.5246 46.3413 67.6303 46.4473C67.736 46.5533 67.8616 46.6374 67.9999 46.6948C68.1382 46.7522 68.2864 46.7817 68.4361 46.7817Z" fill="#6153BD"/>
<path d="M78.4915 55.0742C78.7165 55.0742 78.9362 55.0076 79.1229 54.8827C79.3104 54.7578 79.4558 54.5803 79.5423 54.3725C79.628 54.1648 79.651 53.9362 79.6074 53.7156C79.563 53.4951 79.4551 53.2925 79.2959 53.1334C79.1375 52.9743 78.9346 52.8658 78.7142 52.8217C78.4938 52.7776 78.265 52.8 78.0576 52.8859C77.8494 52.9717 77.6718 53.1172 77.5467 53.304C77.4215 53.4909 77.3546 53.7106 77.3543 53.9354C77.3539 54.085 77.3831 54.2331 77.4402 54.3712C77.4972 54.5094 77.5809 54.635 77.6866 54.7409C77.7922 54.8466 77.9175 54.9305 78.0561 54.9878C78.1938 55.0449 78.3423 55.0743 78.4915 55.0742Z" fill="#6153BD"/>
<path d="M81.1679 71.2063C80.9429 71.2063 80.7233 71.273 80.5358 71.3979C80.3491 71.5229 80.2036 71.7005 80.1172 71.9083C80.0314 72.1162 80.0085 72.3448 80.0529 72.5654C80.0965 72.7861 80.2044 72.9887 80.3636 73.1478C80.5228 73.3068 80.7256 73.4151 80.946 73.459C81.1664 73.5029 81.3953 73.4803 81.6034 73.3943C81.8108 73.3082 81.9884 73.1624 82.1139 72.9754C82.2386 72.7884 82.3052 72.5685 82.3052 72.3436C82.3052 72.042 82.1851 71.7527 81.9723 71.5394C81.7588 71.3261 81.4695 71.2063 81.1679 71.2063Z" fill="#6153BD"/>
<path d="M78.7441 63.4253C78.7441 63.2003 78.6775 62.9804 78.5527 62.7934C78.4272 62.6064 78.2497 62.4606 78.0423 62.3746C77.8341 62.2885 77.6055 62.2659 77.3849 62.3098C77.1643 62.3537 76.9616 62.462 76.8026 62.6211C76.6435 62.7801 76.5352 62.9828 76.4913 63.2034C76.4475 63.424 76.47 63.6526 76.5561 63.8604C76.6422 64.0683 76.7879 64.2458 76.9749 64.3708C77.162 64.4958 77.3819 64.5625 77.6068 64.5625C77.7562 64.5626 77.9037 64.5332 78.0423 64.4761C78.18 64.419 78.3055 64.3352 78.4111 64.2296C78.5168 64.124 78.6002 63.9986 78.6576 63.8606C78.715 63.7225 78.7441 63.5746 78.7441 63.4253Z" fill="#6153BD"/>
<path d="M85.3819 65.6351C85.1569 65.635 84.9364 65.7016 84.7489 65.8266C84.5622 65.9516 84.416 66.1293 84.3295 66.3373C84.2438 66.5453 84.2209 66.7742 84.2645 66.995C84.3089 67.2158 84.4168 67.4186 84.576 67.5779C84.7359 67.7371 84.9387 67.8455 85.1592 67.8894C85.3803 67.9333 85.6092 67.9107 85.8166 67.8244C86.0247 67.7382 86.2023 67.5922 86.3278 67.4049C86.4526 67.2177 86.5191 66.9976 86.5191 66.7724C86.5191 66.6231 86.4901 66.4752 86.4327 66.3372C86.3753 66.1992 86.2918 66.0738 86.1862 65.9682C86.0806 65.8627 85.9551 65.7789 85.8173 65.7217C85.6788 65.6645 85.5311 65.6351 85.3819 65.6351Z" fill="#6153BD"/>
<path d="M92.4297 64.9023C92.2047 64.9022 91.9843 64.9688 91.7976 65.0938C91.6101 65.2187 91.4639 65.3964 91.3774 65.6043C91.2917 65.8122 91.2687 66.0411 91.3123 66.2619C91.3567 66.4827 91.4646 66.6855 91.6238 66.8448C91.783 67.004 91.9858 67.1125 92.2062 67.1565C92.4274 67.2005 92.6563 67.178 92.8644 67.0919C93.0726 67.0058 93.2501 66.8599 93.3749 66.6727C93.5004 66.4856 93.567 66.2655 93.567 66.0404C93.567 65.8909 93.5379 65.743 93.4805 65.6049C93.4231 65.4668 93.3397 65.3414 93.2341 65.2357C93.1285 65.13 93.0029 65.0461 92.8652 64.989C92.7267 64.9317 92.579 64.9023 92.4297 64.9023Z" fill="#6153BD"/>
<path d="M99.0205 63.3635C98.7955 63.3634 98.5751 63.43 98.3884 63.555C98.2009 63.6799 98.0547 63.8576 97.9682 64.0656C97.8825 64.2735 97.8595 64.5023 97.9032 64.7231C97.9476 64.9439 98.0555 65.1468 98.2146 65.306C98.3738 65.4653 98.5767 65.5737 98.7978 65.6177C99.0182 65.6616 99.2471 65.6392 99.4552 65.553C99.6634 65.4669 99.841 65.3211 99.9657 65.134C100.091 64.9468 100.158 64.7267 100.158 64.5016C100.158 64.3522 100.129 64.2042 100.071 64.0662C100.015 63.9281 99.9305 63.8026 99.8249 63.6969C99.7193 63.5912 99.5938 63.5074 99.456 63.4502C99.3182 63.393 99.1698 63.3635 99.0205 63.3635Z" fill="#6153BD"/>
<path d="M87.4405 60.5195C88.0688 60.5195 88.5778 60.0103 88.5778 59.3823C88.5778 58.7542 88.0688 58.245 87.4405 58.245C86.8122 58.245 86.3032 58.7542 86.3032 59.3823C86.3032 60.0103 86.8122 60.5195 87.4405 60.5195Z" fill="#6153BD"/>
<path d="M96.2921 59.7105C96.9204 59.7105 97.4293 59.2013 97.4293 58.5732C97.4293 57.9451 96.9204 57.4359 96.2921 57.4359C95.6637 57.4359 95.1548 57.9451 95.1548 58.5732C95.1548 59.2013 95.6637 59.7105 96.2921 59.7105Z" fill="#6153BD"/>
<path d="M92.1348 73.5883C92.7632 73.5883 93.2721 73.0791 93.2721 72.451C93.2721 71.8229 92.7632 71.3137 92.1348 71.3137C91.5065 71.3137 90.9976 71.8229 90.9976 72.451C90.9976 73.0791 91.5065 73.5883 92.1348 73.5883Z" fill="#6153BD"/>
<path d="M64.8442 50.7897C64.8443 50.5646 64.7777 50.3444 64.6527 50.1571C64.5277 49.9698 64.35 49.8239 64.142 49.7376C63.934 49.6515 63.7051 49.6288 63.4843 49.6727C63.2635 49.7166 63.0606 49.825 62.9015 49.9842C62.7423 50.1434 62.6338 50.3463 62.59 50.5671C62.546 50.7879 62.5687 51.0168 62.6549 51.2248C62.7411 51.4327 62.8871 51.6105 63.0743 51.7355C63.2616 51.8605 63.4818 51.9271 63.707 51.927C64.0086 51.927 64.2978 51.8071 64.5111 51.5938C64.7244 51.3806 64.8442 51.0913 64.8442 50.7897Z" fill="#6153BD"/>
<path d="M71.3105 50.0657C71.0853 50.0655 70.8651 50.1322 70.6779 50.2572C70.4906 50.3821 70.3446 50.5599 70.2585 50.7679C70.1722 50.9759 70.1495 51.2047 70.1935 51.4256C70.2373 51.6464 70.3458 51.8493 70.505 52.0085C70.6641 52.1676 70.867 52.2761 71.0878 52.3199C71.3087 52.3639 71.5375 52.3412 71.7456 52.255C71.9535 52.1688 72.1313 52.0228 72.2563 51.8355C72.3812 51.6483 72.4479 51.4281 72.4477 51.2029C72.4475 50.9014 72.3277 50.6123 72.1144 50.399C71.9011 50.1858 71.612 50.0659 71.3105 50.0657Z" fill="#6153BD"/>
<path d="M70.3216 64.6398C70.0967 64.6398 69.8768 64.7065 69.6897 64.8314C69.5028 64.9564 69.357 65.134 69.2709 65.3418C69.1848 65.5497 69.1623 65.7783 69.2062 65.9989C69.2501 66.2196 69.3584 66.4221 69.5175 66.5812C69.6765 66.7403 69.8792 66.8486 70.0997 66.8925C70.3204 66.9364 70.549 66.9139 70.7568 66.8278C70.9646 66.7417 71.1422 66.5959 71.2672 66.4089C71.3922 66.2218 71.4589 66.002 71.4589 65.777C71.459 65.6277 71.4296 65.4797 71.3725 65.3417C71.3154 65.2037 71.2316 65.0783 71.126 64.9727C71.0204 64.867 70.895 64.7833 70.7569 64.7262C70.6189 64.669 70.471 64.6397 70.3216 64.6398Z" fill="#6153BD"/>
<path d="M74.4124 71.3916C74.1877 71.3918 73.968 71.4585 73.7811 71.5834C73.5943 71.7082 73.4487 71.8857 73.3626 72.0933C73.2765 72.3009 73.2539 72.5293 73.2975 72.7498C73.3412 72.9702 73.4492 73.1728 73.6079 73.3319C73.7666 73.491 73.9689 73.5996 74.1892 73.6439C74.4095 73.6881 74.6381 73.6661 74.8459 73.5806C75.0537 73.4951 75.2316 73.3499 75.3569 73.1634C75.4824 72.9769 75.5496 72.7574 75.5504 72.5327C75.5509 72.3829 75.5219 72.2346 75.4648 72.0961C75.4079 71.9576 75.3242 71.8318 75.2184 71.7257C75.1126 71.6197 74.987 71.5356 74.8487 71.4783C74.7104 71.4209 74.5621 71.3914 74.4124 71.3916Z" fill="#6153BD"/>
<path d="M67.688 56.478C67.4631 56.4782 67.2433 56.5451 67.0564 56.6701C66.8694 56.7952 66.7238 56.9728 66.6378 57.1807C66.5519 57.3885 66.5295 57.6171 66.5735 57.8377C66.6174 58.0582 66.7258 58.2608 66.8849 58.4198C67.0439 58.5788 67.2466 58.687 67.4672 58.7308C67.6878 58.7746 67.9164 58.752 68.1242 58.6659C68.332 58.5798 68.5095 58.4341 68.6344 58.2471C68.7594 58.0601 68.8261 57.8402 68.8261 57.6153C68.8261 57.4659 68.7966 57.318 68.7394 57.1799C68.6822 57.0419 68.5984 56.9165 68.4927 56.8109C68.387 56.7053 68.2616 56.6215 68.1235 56.5644C67.9854 56.5073 67.8374 56.478 67.688 56.478Z" fill="#6153BD"/>
<path d="M49.9656 69.3591C50.5937 69.3591 51.1029 68.85 51.1029 68.2219C51.1029 67.5938 50.5937 67.0846 49.9656 67.0846C49.3375 67.0846 48.8284 67.5938 48.8284 68.2219C48.8284 68.85 49.3375 69.3591 49.9656 69.3591Z" fill="#6153BD"/>
<path d="M52.1229 48.3099C51.8978 48.3098 51.6777 48.3764 51.4905 48.5013C51.3033 48.6263 51.1572 48.804 51.071 49.012C50.9847 49.2198 50.9621 49.4487 51.0059 49.6695C51.0497 49.8903 51.1581 50.0931 51.3172 50.2524C51.4763 50.4117 51.6791 50.5201 51.8999 50.5641C52.1206 50.6081 52.3495 50.5856 52.5575 50.4995C52.7655 50.4134 52.9433 50.2675 53.0684 50.0803C53.1935 49.8932 53.2602 49.6731 53.2602 49.448C53.2603 49.2986 53.231 49.1506 53.1739 49.0125C53.1168 48.8744 53.033 48.749 52.9273 48.6433C52.8217 48.5376 52.6964 48.4537 52.5583 48.3966C52.4203 48.3394 52.2724 48.3099 52.1229 48.3099Z" fill="#6153BD"/>
<path d="M56.7088 66.7676C56.9339 66.7676 57.154 66.7008 57.3411 66.5758C57.5283 66.4507 57.6741 66.2729 57.7602 66.065C57.8463 65.857 57.8689 65.6282 57.825 65.4075C57.7811 65.1867 57.6727 64.984 57.5136 64.8248C57.3544 64.6656 57.1516 64.5572 56.9309 64.5133C56.7101 64.4694 56.4812 64.4919 56.2733 64.5781C56.0654 64.6642 55.8876 64.8101 55.7626 64.9972C55.6375 65.1844 55.5708 65.4044 55.5708 65.6295C55.5708 65.9313 55.6907 66.2208 55.9041 66.4342C56.1176 66.6476 56.407 66.7676 56.7088 66.7676Z" fill="#6153BD"/>
<path d="M40.9116 63.7617C40.6867 63.7617 40.4668 63.8285 40.2799 63.9534C40.0928 64.0784 39.947 64.256 39.861 64.4638C39.7749 64.6716 39.7524 64.9003 39.7963 65.1209C39.8401 65.3415 39.9485 65.5442 40.1075 65.7032C40.2665 65.8622 40.4692 65.9706 40.6898 66.0145C40.9104 66.0583 41.1391 66.0358 41.3469 65.9497C41.5547 65.8637 41.7323 65.7179 41.8573 65.5308C41.9822 65.3438 42.0489 65.1239 42.0489 64.899C42.0489 64.7497 42.0195 64.6018 41.9624 64.4638C41.9053 64.3258 41.8215 64.2005 41.7158 64.0949C41.6102 63.9892 41.4849 63.9054 41.3469 63.8484C41.2089 63.7912 41.061 63.7617 40.9116 63.7617Z" fill="#6153BD"/>
<path d="M44.5594 71.3916C44.3346 71.3916 44.1149 71.4582 43.928 71.583C43.741 71.7078 43.5953 71.8852 43.5091 72.0928C43.4228 72.3004 43.4001 72.5288 43.4437 72.7493C43.4873 72.9699 43.5952 73.1725 43.7538 73.3317C43.9126 73.4909 44.1148 73.5995 44.3352 73.6438C44.5555 73.6881 44.784 73.6661 44.992 73.5807C45.1998 73.4952 45.3777 73.35 45.5031 73.1635C45.6286 72.977 45.6959 72.7575 45.6967 72.5327C45.6972 72.383 45.6683 72.2346 45.6114 72.0962C45.5545 71.9577 45.4708 71.8318 45.3652 71.7258C45.2595 71.6197 45.1339 71.5356 44.9956 71.4783C44.8574 71.421 44.7091 71.3914 44.5594 71.3916Z" fill="#6153BD"/>
<path d="M41.4745 49.1904C41.2494 49.1903 41.0293 49.2569 40.842 49.3818C40.6547 49.5068 40.5088 49.6845 40.4225 49.8925C40.3363 50.1004 40.3136 50.3292 40.3575 50.55C40.4013 50.7708 40.5096 50.9737 40.6687 51.1329C40.8279 51.2922 41.0307 51.4006 41.2514 51.4446C41.4722 51.4885 41.701 51.466 41.909 51.3799C42.117 51.2938 42.2948 51.148 42.4199 50.9608C42.545 50.7737 42.6118 50.5536 42.6118 50.3285C42.6118 50.1791 42.5825 50.0311 42.5254 49.893C42.4683 49.7549 42.3845 49.6295 42.2789 49.5238C42.1733 49.4181 42.0479 49.3343 41.9099 49.2771C41.7718 49.2199 41.6239 49.1904 41.4745 49.1904Z" fill="#6153BD"/>
<path d="M34.0658 61.2362C33.8406 61.2361 33.6205 61.3026 33.4332 61.4276C33.246 61.5527 33.1 61.7304 33.0138 61.9383C32.9275 62.1463 32.9049 62.3752 32.9489 62.596C32.9927 62.8169 33.1011 63.0197 33.2604 63.1789C33.4195 63.3381 33.6224 63.4465 33.8432 63.4904C34.064 63.5343 34.2929 63.5117 34.5009 63.4255C34.7089 63.3392 34.8866 63.1933 35.0116 63.006C35.1366 62.8187 35.2032 62.5986 35.2031 62.3735C35.2031 62.0718 35.0833 61.7826 34.87 61.5693C34.6567 61.356 34.3674 61.2362 34.0658 61.2362Z" fill="#6153BD"/>
<path d="M60.6387 39.6154C63.1834 40.3807 62.8979 36.114 62.8979 36.114C62.6538 33.3114 61.4232 29.7136 58.3741 30.7475C57.5386 31.0189 56.8338 31.5913 56.3967 32.3534C55.9597 33.1155 55.8216 34.0129 56.0093 34.8711C55.8088 34.8871 55.6157 34.9539 55.4481 35.065C55.2805 35.1762 55.1439 35.3281 55.0511 35.5066C54.9584 35.685 54.9125 35.8841 54.9179 36.0852C54.9233 36.2862 54.9796 36.4826 55.0817 36.6559C55.6496 38.1291 56.5067 38.084 56.7991 37.6906C56.8289 37.65 56.8756 37.6378 56.8986 37.7174C57.1718 38.6358 58.616 44.0504 55.0817 45.7655C55.0817 45.7655 57.6907 49.1904 60.54 48.1893C63.3893 47.1883 62.8604 44.7913 62.8604 44.7913C62.8604 44.7913 60.4772 43.8744 60.6387 39.6154Z" fill="#FECFC4"/>
<path d="M60.6387 39.6154C63.1834 40.3807 62.8979 36.114 62.8979 36.114C62.6538 33.3114 61.4232 29.7136 58.3741 30.7475C57.5386 31.0189 56.8338 31.5913 56.3967 32.3534C55.9597 33.1155 55.8216 34.0129 56.0093 34.8711C55.8088 34.8871 55.6157 34.9539 55.4481 35.065C55.2805 35.1762 55.1439 35.3281 55.0511 35.5066C54.9584 35.685 54.9125 35.8841 54.9179 36.0852C54.9233 36.2862 54.9796 36.4826 55.0817 36.6559C55.6496 38.1291 56.5067 38.084 56.7991 37.6906C56.8289 37.65 56.8756 37.6378 56.8986 37.7174C57.1718 38.6358 58.616 44.0504 55.0817 45.7655C55.0817 45.7655 57.6907 49.1904 60.54 48.1893C63.3893 47.1883 62.8604 44.7913 62.8604 44.7913C62.8604 44.7913 60.4772 43.8744 60.6387 39.6154Z" stroke="#120071" stroke-width="0.769171" stroke-linecap="round" stroke-linejoin="round"/>
<path d="M66.658 28.1622C67.1346 27.5921 67.393 26.871 67.3868 26.1279C67.3807 25.3848 67.1104 24.6681 66.6243 24.106H49.1879C49.0302 24.1685 48.8768 24.2413 48.7287 24.3241C48.4728 24.4812 48.2502 24.6872 48.0739 24.9304C47.8976 25.1734 47.7709 25.449 47.701 25.741C47.6311 26.0331 47.6195 26.3361 47.6667 26.6327C47.714 26.9292 47.8192 27.2136 47.9764 27.4696C47.3836 27.5747 46.8337 27.8485 46.3925 28.2582C45.9514 28.6678 45.6377 29.196 45.4891 29.7793C45.3688 30.3683 45.4625 30.9809 45.7535 31.507C46.0444 32.033 46.5135 32.4381 47.0764 32.6493C46.5911 32.9969 46.2262 33.4871 46.0324 34.0517C45.8385 34.6162 45.8254 35.2272 45.9949 35.7996C46.1643 36.372 46.5079 36.8773 46.9778 37.2454C47.4477 37.6135 48.0206 37.8261 48.617 37.8535C48.4344 38.3687 48.4226 38.929 48.5833 39.4514C48.7439 39.9738 49.0686 40.4306 49.5091 40.7542C49.9495 41.0778 50.4826 41.2509 51.0291 41.248C51.5757 41.2451 52.1068 41.0662 52.5438 40.738C52.866 41.7865 54.1189 42.1959 55.2064 42.3337C55.9407 42.4995 56.7101 42.3994 57.3776 42.0513C57.4785 40.59 57.3157 39.1225 56.897 37.7188C56.8741 37.6423 56.8274 37.6522 56.7975 37.692C56.5052 38.0854 55.6495 38.1305 55.0801 36.6573C54.978 36.484 54.9216 36.2876 54.9163 36.0866C54.9109 35.8855 54.9568 35.6865 55.0495 35.508C55.1423 35.3295 55.2789 35.1776 55.4465 35.0665C55.6141 34.9553 55.8072 34.8885 56.0077 34.8725C55.8192 34.0137 55.9571 33.1154 56.3946 32.3526C56.832 31.5898 57.5376 31.0171 58.3741 30.7459C61.4231 29.712 62.6538 33.3098 62.8979 36.1124C62.9125 36.3809 62.9125 36.6499 62.8979 36.9183C63.8466 36.9041 64.753 36.5234 65.4273 35.856C65.7522 35.5075 65.9421 35.0545 65.9627 34.5784C65.9833 34.1023 65.8334 33.6346 65.5398 33.2592C66.1346 33.2335 66.7043 33.0118 67.1601 32.6287C67.6158 32.2456 67.9322 31.7225 68.0597 31.1409C68.1873 30.5593 68.119 29.9518 67.8655 29.4131C67.6119 28.8744 67.1874 28.4346 66.658 28.1622Z" fill="#6153BD"/>
<path d="M66.658 28.1622C67.1346 27.5921 67.393 26.871 67.3868 26.1279C67.3807 25.3848 67.1104 24.6681 66.6243 24.106H49.1879C49.0302 24.1685 48.8768 24.2413 48.7287 24.3241C48.4728 24.4812 48.2502 24.6872 48.0739 24.9304C47.8976 25.1734 47.7709 25.449 47.701 25.741C47.6311 26.0331 47.6195 26.3361 47.6667 26.6327C47.714 26.9292 47.8192 27.2136 47.9764 27.4696C47.3836 27.5747 46.8337 27.8485 46.3925 28.2582C45.9514 28.6678 45.6377 29.196 45.4891 29.7793C45.3688 30.3683 45.4625 30.9809 45.7535 31.507C46.0444 32.033 46.5135 32.4381 47.0764 32.6493C46.5911 32.9969 46.2262 33.4871 46.0324 34.0517C45.8385 34.6162 45.8254 35.2272 45.9949 35.7996C46.1643 36.372 46.5079 36.8773 46.9778 37.2454C47.4477 37.6135 48.0206 37.8261 48.617 37.8535C48.4344 38.3687 48.4226 38.929 48.5833 39.4514C48.7439 39.9738 49.0686 40.4306 49.5091 40.7542C49.9495 41.0778 50.4826 41.2509 51.0291 41.248C51.5757 41.2451 52.1068 41.0662 52.5438 40.738C52.866 41.7865 54.1189 42.1959 55.2064 42.3337C55.9407 42.4995 56.7101 42.3994 57.3776 42.0513C57.4785 40.59 57.3157 39.1225 56.897 37.7188C56.8741 37.6423 56.8274 37.6522 56.7975 37.692C56.5052 38.0854 55.6495 38.1305 55.0801 36.6573C54.978 36.484 54.9216 36.2876 54.9163 36.0866C54.9109 35.8855 54.9568 35.6865 55.0495 35.508C55.1423 35.3295 55.2789 35.1776 55.4465 35.0665C55.6141 34.9553 55.8072 34.8885 56.0077 34.8725C55.8192 34.0137 55.9571 33.1154 56.3946 32.3526C56.832 31.5898 57.5376 31.0171 58.3741 30.7459C61.4231 29.712 62.6538 33.3098 62.8979 36.1124C62.9125 36.3809 62.9125 36.6499 62.8979 36.9183C63.8466 36.9041 64.753 36.5234 65.4273 35.856C65.7522 35.5075 65.9421 35.0545 65.9627 34.5784C65.9833 34.1023 65.8334 33.6346 65.5398 33.2592C66.1346 33.2335 66.7043 33.0118 67.1601 32.6287C67.6158 32.2456 67.9322 31.7225 68.0597 31.1409C68.1873 30.5593 68.119 29.9518 67.8655 29.4131C67.6119 28.8744 67.1874 28.4346 66.658 28.1622Z" stroke="#120071" stroke-width="0.769171" stroke-linecap="round" stroke-linejoin="round"/>
<path d="M120.834 139.248V147.193C120.834 147.552 120.763 147.909 120.626 148.241C120.488 148.573 120.287 148.875 120.033 149.129C119.778 149.383 119.477 149.585 119.145 149.722C118.813 149.86 118.457 149.931 118.097 149.931H78.3675C77.6415 149.931 76.9451 149.642 76.4317 149.129C75.9183 148.615 75.6299 147.919 75.6299 147.193V135.825" stroke="#120071" stroke-width="0.769171" stroke-linecap="round" stroke-linejoin="round"/>
<path d="M75.6277 114.53V81.1621C75.6278 80.8024 75.6988 80.4465 75.8365 80.1144C75.9743 79.7815 76.1761 79.4799 76.4306 79.2258C76.6851 78.9717 76.9871 78.7705 77.3194 78.6327C77.6517 78.4957 78.0078 78.4245 78.3675 78.4253H118.099C118.826 78.4253 119.521 78.7138 120.035 79.2266C120.548 79.7401 120.836 80.4358 120.836 81.1621V121.405" stroke="#120071" stroke-width="0.769171" stroke-linecap="round" stroke-linejoin="round"/>
<path d="M120.834 85.3954H75.6277" stroke="#120071" stroke-width="0.769171" stroke-linecap="round" stroke-linejoin="round"/>
<path d="M75.6277 141.224H120.834" stroke="#120071" stroke-width="0.769171" stroke-linecap="round" stroke-linejoin="round"/>
<path d="M25.6719 11.3787V17.1775" stroke="#120071" stroke-width="0.769171" stroke-linecap="round" stroke-linejoin="round"/>
<path d="M23.5542 14.2786H27.7903" stroke="#120071" stroke-width="0.769171" stroke-linecap="round" stroke-linejoin="round"/>
<path d="M127.951 66.1823V71.9666" stroke="#120071" stroke-width="0.769171" stroke-linecap="round" stroke-linejoin="round"/>
<path d="M125.831 69.0743H130.07" stroke="#120071" stroke-width="0.769171" stroke-linecap="round" stroke-linejoin="round"/>
<path d="M61.5159 121.707V127.563" stroke="#120071" stroke-width="0.769171" stroke-linecap="round" stroke-linejoin="round"/>
<path d="M59.3616 124.635H63.6704" stroke="#120071" stroke-width="0.769171" stroke-linecap="round" stroke-linejoin="round"/>
<path d="M42.3083 66.0022C49.497 66.0023 56.3937 68.8465 61.4927 73.9139C66.5916 78.9814 69.4786 85.8602 69.5233 93.0489L81.2581 100.175L68.4464 100.812C67.0363 105.668 64.3015 110.034 60.5487 113.423C56.7959 116.811 52.1735 119.088 47.1996 119.997C42.2257 120.905 37.097 120.411 32.3885 118.568C27.68 116.726 23.5778 113.608 20.5418 109.565C17.5059 105.521 15.6561 100.712 15.1999 95.677C14.7437 90.6411 15.6992 85.5778 17.9592 81.0547C20.2192 76.5319 23.6943 72.7278 27.995 70.0691C32.2958 67.4103 37.2521 66.002 42.3083 66.0022Z" fill="#FECFC4"/>
<path d="M42.3083 66.0022C49.497 66.0023 56.3937 68.8465 61.4927 73.9139C66.5916 78.9814 69.4786 85.8602 69.5233 93.0489L81.2581 100.175L68.4464 100.812C67.0363 105.668 64.3015 110.034 60.5487 113.423C56.7959 116.811 52.1735 119.088 47.1996 119.997C42.2257 120.905 37.097 120.411 32.3885 118.568C27.68 116.726 23.5778 113.608 20.5418 109.565C17.5059 105.521 15.6561 100.712 15.1999 95.677C14.7437 90.6411 15.6992 85.5778 17.9592 81.0547C20.2192 76.5319 23.6943 72.7278 27.995 70.0691C32.2958 67.4103 37.2521 66.002 42.3083 66.0022Z" stroke="#120071" stroke-width="0.769171" stroke-linecap="round" stroke-linejoin="round"/>
<path d="M30.3594 85.9319H54.9898" stroke="#120071" stroke-width="0.769171" stroke-linecap="round" stroke-linejoin="round"/>
<path d="M30.3594 91.5479H54.9898" stroke="#120071" stroke-width="0.769171" stroke-linecap="round" stroke-linejoin="round"/>
<path d="M30.3594 97.1637H54.9898" stroke="#120071" stroke-width="0.769171" stroke-linecap="round" stroke-linejoin="round"/>
<path d="M30.3594 102.779H54.9898" stroke="#120071" stroke-width="0.769171" stroke-linecap="round" stroke-linejoin="round"/>
<path d="M132.82 121.238C132.743 120.732 132.249 120.493 131.55 121.09C131.185 121.401 130.402 122.314 130.084 122.673C130.995 121.486 131.743 120.181 132.307 118.794C132.594 117.98 132.238 117.352 131.465 117.864C130.271 118.768 129.207 119.832 128.3 121.025C129.779 118.093 130.91 117.216 130.912 115.73C130.912 114.973 130.632 114.969 130.11 115.157C128.612 115.696 127.877 117.432 126.417 120.131C128.574 115.51 128.807 115.24 128.636 114.536C128.586 114.212 128.283 114.059 127.831 114.408C125.984 116.12 124.57 118.249 123.708 120.616C123.665 119.357 123.509 118.104 123.242 116.873C123.042 115.969 122.412 116.136 122.052 116.833C121.155 118.615 121.223 120.758 120.445 122.568L127.676 129.493C129.238 127.688 130.632 125.744 131.84 123.686C132.175 123.112 132.949 121.889 132.82 121.238Z" stroke="#120071" stroke-width="0.769171" stroke-linecap="round" stroke-linejoin="round"/>
<path d="M78.33 117.186C77.9152 115.323 78.359 113.3 77.8264 111.451C77.7261 111.105 77.4613 110.692 77.1116 110.785C76.895 110.842 76.7794 111.071 76.6906 111.277C76.2176 112.399 75.8453 113.56 75.5779 114.748C75.1952 112.58 74.1184 109.63 72.7699 108.111C72.4002 107.694 72.0926 107.79 71.9801 108.088C71.69 108.737 71.8867 109.11 73.0844 113.801C72.2717 111.248 71.8454 109.297 70.552 108.467C69.8463 108.014 69.6718 108.275 69.5854 108.956C69.4109 110.327 70.2742 111.309 71.139 114.313C70.4927 113.017 69.6726 111.816 68.7014 110.743C68.2606 110.207 67.5779 110.446 67.7317 111.473C68.0186 112.891 68.4948 114.264 69.1476 115.554C68.9111 115.156 68.3295 114.15 68.0379 113.788C67.796 113.487 67.3973 113.176 67.0636 113.369C66.3695 113.828 66.9741 115.309 67.2986 116.201C67.9166 117.924 68.6584 119.6 69.518 121.216C70.1708 120.894 77.7185 117.174 78.33 117.186Z" stroke="#120071" stroke-width="0.769171" stroke-linecap="round" stroke-linejoin="round"/>
<path d="M127.922 129.729L120.171 122.305C119.805 121.954 119.865 121.984 119.598 122.244C117.088 124.664 114.712 127.219 112.481 129.897C111.927 127.596 111.02 125.395 109.79 123.372C107.556 119.517 105.122 116.74 100.941 115.727C97.4511 117.028 96.6184 115.267 96.6184 115.267C89.807 115.212 86.6141 116.128 83.3699 122.921C81.9877 121.046 80.5121 119.244 78.9478 117.519C78.8935 117.436 78.8223 117.364 78.7404 117.307C78.6577 117.251 78.5651 117.211 78.4672 117.191C78.3692 117.171 78.2682 117.17 78.1702 117.189C78.0723 117.208 77.9789 117.245 77.8955 117.3C74.9712 118.466 69.2305 121.351 69.2305 121.351C70.1358 124.296 71.2372 127.178 72.4112 130.026C73.6548 133.044 75.0844 136.225 78.1014 137.763C79.7789 138.62 81.7244 138.787 83.5229 138.229C85.3222 137.672 86.8322 136.433 87.7307 134.778C87.7797 136.529 87.9993 140.155 88.0644 141.214H116.735C121.961 139.662 125.569 135.268 127.945 130.305C128.068 130.065 128.162 129.958 127.922 129.729Z" fill="#FECFC4"/>
<path d="M127.922 129.729L120.171 122.305C119.805 121.954 119.865 121.984 119.598 122.244C117.088 124.664 114.712 127.219 112.481 129.897C111.927 127.596 111.02 125.395 109.79 123.372C107.556 119.517 105.122 116.74 100.941 115.727C97.4511 117.028 96.6184 115.267 96.6184 115.267C89.807 115.212 86.6141 116.128 83.3699 122.921C81.9877 121.046 80.5121 119.244 78.9478 117.519C78.8935 117.436 78.8223 117.364 78.7404 117.307C78.6577 117.251 78.5651 117.211 78.4672 117.191C78.3692 117.171 78.2682 117.17 78.1702 117.189C78.0723 117.208 77.9789 117.245 77.8955 117.3C74.9712 118.466 69.2305 121.351 69.2305 121.351C70.1358 124.296 71.2372 127.178 72.4112 130.026C73.6548 133.044 75.0844 136.225 78.1014 137.763C79.7789 138.62 81.7244 138.787 83.5229 138.229C85.3222 137.672 86.8322 136.433 87.7307 134.778C87.7797 136.529 87.9993 140.155 88.0644 141.214H116.735C121.961 139.662 125.569 135.268 127.945 130.305C128.068 130.065 128.162 129.958 127.922 129.729Z" stroke="#120071" stroke-width="0.769171" stroke-linecap="round" stroke-linejoin="round"/>
<path d="M98.491 103.63C98.491 103.63 93.8508 107.21 94.9574 109.437C94.9574 109.437 95.4365 110.595 97.6874 110.374C97.6124 112.055 97.2519 113.711 96.622 115.272C96.622 115.272 97.4547 117.032 100.945 115.731C100.945 115.731 98.9685 112.281 99.6022 109.556C99.6045 109.547 99.6083 109.539 99.6137 109.531C99.619 109.523 99.6259 109.517 99.6336 109.512C99.6412 109.507 99.6504 109.504 99.6596 109.503C99.6688 109.501 99.678 109.501 99.6872 109.503C99.8173 109.617 99.9711 109.699 100.138 109.744C100.304 109.79 100.479 109.796 100.648 109.764C100.818 109.732 100.978 109.662 101.116 109.559C101.255 109.456 101.368 109.323 101.447 109.17C102.122 108.175 101.059 107.771 100.703 107.683C100.677 107.677 100.655 107.66 100.642 107.637C100.629 107.615 100.625 107.589 100.631 107.563C101.078 106.597 101.639 105.689 102.302 104.857C100.993 104.581 99.7155 104.17 98.491 103.63Z" stroke="#120071" stroke-width="0.769171" stroke-linecap="round" stroke-linejoin="round"/>
<path d="M87.8775 126.913C87.4627 129.326 87.7343 134.787 87.7343 134.787" stroke="#120071" stroke-width="0.769171" stroke-linecap="round" stroke-linejoin="round"/>
<path d="M107.674 127.199C108.684 131.812 109.283 136.505 109.464 141.224" stroke="#120071" stroke-width="0.769171" stroke-linecap="round" stroke-linejoin="round"/>
<path d="M98.491 103.63C99.7148 104.169 100.992 104.579 102.301 104.854C101.638 105.687 101.077 106.596 100.629 107.561C100.623 107.586 100.627 107.613 100.641 107.635C100.654 107.658 100.676 107.674 100.701 107.68C100.958 107.745 101.587 107.972 101.659 108.471C103.163 107.887 105.413 105.477 104.72 103.85C104.686 103.759 104.624 103.681 104.542 103.628C104.461 103.576 104.365 103.551 104.268 103.558C103.921 103.559 103.585 103.676 103.314 103.892C103.231 102.69 102.808 101.538 102.093 100.568C101.405 99.7497 100.452 100.568 100.86 101.738C100.436 101.035 99.8847 100.417 99.2334 99.9173C98.7987 99.5346 98.3701 99.7176 98.4421 100.115C98.5048 100.698 98.6908 101.262 98.9877 101.768C98.6518 101.431 98.2744 101.137 97.8658 100.894C97.3423 100.532 96.952 100.833 97.1004 101.255C97.3193 102.167 97.803 102.993 98.491 103.63Z" fill="#6153BD"/>
<path d="M98.491 103.63C99.7148 104.169 100.992 104.579 102.301 104.854C101.638 105.687 101.077 106.596 100.629 107.561C100.623 107.586 100.627 107.613 100.641 107.635C100.654 107.658 100.676 107.674 100.701 107.68C100.958 107.745 101.587 107.972 101.659 108.471C103.163 107.887 105.413 105.477 104.72 103.85C104.686 103.759 104.624 103.681 104.542 103.628C104.461 103.576 104.365 103.551 104.268 103.558C103.921 103.559 103.585 103.676 103.314 103.892C103.231 102.69 102.808 101.538 102.093 100.568C101.405 99.7497 100.452 100.568 100.86 101.738C100.436 101.035 99.8847 100.417 99.2334 99.9173C98.7987 99.5346 98.3701 99.7176 98.4421 100.115C98.5048 100.698 98.6908 101.262 98.9877 101.768C98.6518 101.431 98.2744 101.137 97.8658 100.894C97.3423 100.532 96.952 100.833 97.1004 101.255C97.3193 102.167 97.803 102.993 98.491 103.63Z" stroke="#120071" stroke-width="0.769171" stroke-linecap="round" stroke-linejoin="round"/>
<path d="M113.365 4.94971C106.176 4.94956 99.2791 7.79378 94.1797 12.8614C89.0803 17.9289 86.1928 24.8082 86.1484 31.997L74.4121 39.1207L87.2237 39.7582C88.6334 44.6139 91.3679 48.9808 95.1203 52.3694C98.8734 55.7581 103.495 58.0347 108.469 58.9437C113.443 59.8528 118.571 59.3585 123.28 57.5163C127.989 55.674 132.091 52.5567 135.128 48.5137C138.164 44.4707 140.013 39.6619 140.47 34.6264C140.927 29.5909 139.972 24.5278 137.712 20.0045C135.453 15.4814 131.978 11.677 127.678 9.01791C123.377 6.35878 118.421 4.95007 113.365 4.94971Z" fill="#FECFC4"/>
<path d="M113.365 4.94971C106.176 4.94956 99.2791 7.79378 94.1797 12.8614C89.0803 17.9289 86.1928 24.8082 86.1484 31.997L74.4121 39.1207L87.2237 39.7582C88.6334 44.6139 91.3679 48.9808 95.1203 52.3694C98.8734 55.7581 103.495 58.0347 108.469 58.9437C113.443 59.8528 118.571 59.3585 123.28 57.5163C127.989 55.674 132.091 52.5567 135.128 48.5137C138.164 44.4707 140.013 39.6619 140.47 34.6264C140.927 29.5909 139.972 24.5278 137.712 20.0045C135.453 15.4814 131.978 11.677 127.678 9.01791C123.377 6.35878 118.421 4.95007 113.365 4.94971Z" stroke="#120071" stroke-width="0.769171" stroke-linecap="round" stroke-linejoin="round"/>
<path d="M100.693 24.8986H125.285" stroke="#120071" stroke-width="0.769171" stroke-linecap="round" stroke-linejoin="round"/>
<path d="M100.693 30.5131H125.285" stroke="#120071" stroke-width="0.769171" stroke-linecap="round" stroke-linejoin="round"/>
<path d="M100.693 36.127H125.285" stroke="#120071" stroke-width="0.769171" stroke-linecap="round" stroke-linejoin="round"/>
<path d="M100.693 41.7405H125.285" stroke="#120071" stroke-width="0.769171" stroke-linecap="round" stroke-linejoin="round"/>
</g>
<defs>
<filter id="filter0_d_714_7905" x="-3.08545" y="0.513672" width="161.834" height="161.834" filterUnits="userSpaceOnUse" color-interpolation-filters="sRGB">
<feFlood flood-opacity="0" result="BackgroundImageFix"/>
<feColorMatrix in="SourceAlpha" type="matrix" values="0 0 0 0 0 0 0 0 0 0 0 0 0 0 0 0 0 0 127 0" result="hardAlpha"/>
<feOffset dy="4"/>
<feGaussianBlur stdDeviation="2"/>
<feComposite in2="hardAlpha" operator="out"/>
<feColorMatrix type="matrix" values="0 0 0 0 0 0 0 0 0 0 0 0 0 0 0 0 0 0 0.25 0"/>
<feBlend mode="normal" in2="BackgroundImageFix" result="effect1_dropShadow_714_7905"/>
<feBlend mode="normal" in="SourceGraphic" in2="effect1_dropShadow_714_7905" result="shape"/>
</filter>
</defs>
</svg>
